<svg xmlns="http://www.w3.org/2000/svg" viewBox="0 0 1182.13 1633.8"><defs><style>.cls-1{fill:#062612;}.cls-2{fill:#4d2b12;}.cls-3{fill:#0b411e;}</style></defs><g id="Layer_2" data-name="Layer 2"><g id="Layer_1-2" data-name="Layer 1"><rect class="cls-1" x="264.38" y="436.08" width="746.07" height="1042.92" rx="155.54" transform="translate(-338.21 348.17) rotate(-24.36)"/><rect class="cls-2" x="74.54" y="106.96" width="565.75" height="483.56" transform="translate(-112.03 178.48) rotate(-24.36)"/><rect class="cls-1" x="304.15" y="474.56" width="677.6" height="947.2" rx="155.54" transform="translate(-333.85 349.62) rotate(-24.36)"/><rect class="cls-3" x="315.98" y="545.24" width="746.07" height="1042.92" rx="191.21" transform="translate(-378.64 379.17) rotate(-24.36)"/><path class="cls-2" d="M755.21,33.07h0a112.91,112.91,0,0,1,0,159.67L605.08,342.87a112.91,112.91,0,0,1-159.67,0h0a112.91,112.91,0,0,1,0-159.67L595.54,33.07A112.91,112.91,0,0,1,755.21,33.07Z"/></g></g></svg>