<svg xmlns="http://www.w3.org/2000/svg" viewBox="0 0 3015.51 3459.62"><defs><style>.cls-1{fill:#062612;}.cls-2{fill:#4d2b12;}.cls-3{fill:#0b411e;}.cls-4{fill:#f7f7f7;}.cls-5{fill:#7b461e;}</style></defs><g id="Layer_2" data-name="Layer 2"><g id="Layer_1-2" data-name="Layer 1"><rect class="cls-1" x="3304.3" y="7685.8" width="746.07" height="1042.92" rx="155.54" transform="translate(-4264.45 -3176.37) rotate(-24.36)"/><rect class="cls-2" x="3114.46" y="7356.67" width="565.75" height="483.56" transform="translate(-4038.26 -3346.06) rotate(-24.36)"/><rect class="cls-1" x="3344.07" y="7724.28" width="677.6" height="947.2" rx="155.54" transform="translate(-4260.08 -3174.92) rotate(-24.36)"/><rect class="cls-3" x="3355.9" y="7794.95" width="746.07" height="1042.92" rx="191.21" transform="translate(-4304.88 -3145.37) rotate(-24.36)"/><path class="cls-2" d="M3795.13,7282.78h0a112.91,112.91,0,0,1,0,159.67L3645,7592.58a112.91,112.91,0,0,1-159.67,0h0a112.91,112.91,0,0,1,0-159.67l150.13-150.13A112.91,112.91,0,0,1,3795.13,7282.78Z" transform="translate(-1206.54 -5423.89)"/><rect class="cls-1" x="1579.15" y="6401.91" width="746.07" height="1042.92" rx="155.54" transform="translate(-323.71 8612.88) rotate(-155.7)"/><rect class="cls-2" x="1948.64" y="6072.47" width="565.75" height="483.56" transform="translate(460.81 7563.53) rotate(-155.7)"/><rect class="cls-1" x="1607.85" y="6440.39" width="677.6" height="947.2" rx="155.54" transform="translate(-330.43 8592.68) rotate(-155.7)"/><rect class="cls-3" x="1427.02" y="6489.45" width="746.07" height="1532.19" rx="191.21" transform="translate(-751.17 9185.22) rotate(-155.7)"/><path class="cls-2" d="M2353.16,5465.63h0a112.9,112.9,0,0,0-159.66-.72l-150.81,149.46A112.92,112.92,0,0,0,2042,5774h0a112.9,112.9,0,0,0,159.67.71l150.8-149.45A112.9,112.9,0,0,0,2353.16,5465.63Z" transform="translate(-1206.54 -5423.89)"/><path class="cls-2" d="M1833.36,5999h0a112.89,112.89,0,0,0,.18,159.66l150.3,150a112.91,112.91,0,0,0,159.67-.18h0a112.91,112.91,0,0,0-.18-159.67l-150.3-150A112.91,112.91,0,0,0,1833.36,5999Z" transform="translate(-1206.54 -5423.89)"/><path class="cls-4" d="M3513.2,5602.82H2115.75a139.83,139.83,0,0,0-139.84,139.83v1956.5h0A139.83,139.83,0,0,0,2115.75,7839H3513.2A139.82,139.82,0,0,0,3653,7699.15h0V5742.65A139.82,139.82,0,0,0,3513.2,5602.82Z" transform="translate(-1206.54 -5423.89)"/><path class="cls-2" d="M2559.84,5525.15h0c.26-45.95-30.8-83.37-69.38-83.59l-181.73-1c-38.58-.21-70.05,36.86-70.31,82.81h0c-.26,45.94,30.8,83.36,69.37,83.58l181.74,1C2528.1,5608.16,2559.58,5571.09,2559.84,5525.15Z" transform="translate(-1206.54 -5423.89)"/><path class="cls-5" d="M2559.84,5525.15h0c.26-45.95-30.8-83.37-69.38-83.59l-181.73-1c-38.58-.21-70.05,36.86-70.31,82.81h0c-.26,45.94,30.8,83.36,69.37,83.58l181.74,1C2528.1,5608.16,2559.58,5571.09,2559.84,5525.15Z" transform="translate(-1206.54 -5423.89)"/><ellipse class="cls-5" cx="2519.81" cy="5551.3" rx="108.84" ry="112.22" transform="translate(-4252.06 2616.08) rotate(-89.68)"/><ellipse class="cls-2" cx="2519.92" cy="5532.74" rx="108.84" ry="112.22" transform="translate(-4233.39 2597.73) rotate(-89.68)"/><path class="cls-2" d="M2559.89,5515.31h0c.26-45.46-30.47-82.47-68.63-82.69l-226.79-1.27c-38.16-.21-69.3,36.46-69.55,81.91h0c-.26,45.45,30.47,82.47,68.63,82.69l226.79,1.27C2528.5,5597.43,2559.64,5560.76,2559.89,5515.31Z" transform="translate(-1206.54 -5423.89)"/><path class="cls-2" d="M1893.41,5719.32h0a84.92,84.92,0,0,0-84.92,84.92v221a84.93,84.93,0,0,0,84.92,84.93h0a84.93,84.93,0,0,0,84.93-84.93v-221A84.92,84.92,0,0,0,1893.41,5719.32Z" transform="translate(-1206.54 -5423.89)"/><path class="cls-5" d="M1893.41,5719.32h0a84.92,84.92,0,0,0-84.92,84.92v221a84.93,84.93,0,0,0,84.92,84.93h0a84.93,84.93,0,0,0,84.93-84.93v-221A84.92,84.92,0,0,0,1893.41,5719.32Z" transform="translate(-1206.54 -5423.89)"/><ellipse class="cls-5" cx="747.06" cy="354.92" rx="131.93" ry="136.02"/><ellipse class="cls-2" cx="724.56" cy="354.92" rx="131.93" ry="136.02"/><path class="cls-2" d="M1883.37,5719.32h0a84,84,0,0,0-84,84v275.78a84,84,0,0,0,84,84h0a84,84,0,0,0,84-84V5803.33A84,84,0,0,0,1883.37,5719.32Z" transform="translate(-1206.54 -5423.89)"/><path class="cls-2" d="M3735.66,7003.26h0a84.93,84.93,0,0,1,84.93,84.92v221a84.94,84.94,0,0,1-84.93,84.93h0a84.93,84.93,0,0,1-84.92-84.93v-221A84.92,84.92,0,0,1,3735.66,7003.26Z" transform="translate(-1206.54 -5423.89)"/><path class="cls-5" d="M3735.66,7003.26h0a84.93,84.93,0,0,1,84.93,84.92v221a84.94,84.94,0,0,1-84.93,84.93h0a84.93,84.93,0,0,1-84.92-84.93v-221A84.92,84.92,0,0,1,3735.66,7003.26Z" transform="translate(-1206.54 -5423.89)"/><ellipse class="cls-5" cx="2495.04" cy="1598.54" rx="131.93" ry="136.02"/><ellipse class="cls-2" cx="2517.54" cy="1598.54" rx="131.93" ry="136.02"/><path class="cls-2" d="M3745.71,7003.26h0a84,84,0,0,1,84,84v275.78a84,84,0,0,1-84,84h0a84,84,0,0,1-84-84V7087.27A84,84,0,0,1,3745.71,7003.26Z" transform="translate(-1206.54 -5423.89)"/></g></g></svg>