<svg xmlns="http://www.w3.org/2000/svg" viewBox="0 0 832.97 739.23"><defs><style>.cls-1{fill:#4d2b12;}.cls-2{fill:#7b461e;}</style></defs><g id="Layer_2" data-name="Layer 2"><g id="Layer_1-2" data-name="Layer 1"><path class="cls-1" d="M760.67,101.25h0c.26-45.94-30.8-83.36-69.37-83.58l-181.74-1c-38.57-.21-70.05,36.86-70.31,82.8h0c-.25,46,30.81,83.37,69.38,83.59l181.74,1C728.94,184.27,760.42,147.2,760.67,101.25Z"/><path class="cls-2" d="M760.67,101.25h0c.26-45.94-30.8-83.36-69.37-83.58l-181.74-1c-38.57-.21-70.05,36.86-70.31,82.8h0c-.25,46,30.81,83.37,69.38,83.59l181.74,1C728.94,184.27,760.42,147.2,760.67,101.25Z"/><ellipse class="cls-2" cx="720.65" cy="127.41" rx="108.84" ry="112.22" transform="translate(589.2 847.33) rotate(-89.68)"/><ellipse class="cls-1" cx="720.75" cy="108.84" rx="108.84" ry="112.22" transform="translate(607.87 828.97) rotate(-89.68)"/><path class="cls-1" d="M760.73,91.41h0C761,46,730.26,8.94,692.1,8.73L465.3,7.46C427.14,7.24,396,43.92,395.75,89.37h0c-.25,45.45,30.47,82.47,68.63,82.69l226.8,1.27C729.33,173.54,760.47,136.87,760.73,91.41Z"/><path class="cls-1" d="M94.25,295.42h0A84.93,84.93,0,0,0,9.32,380.35v221a84.92,84.92,0,0,0,84.93,84.92h0a84.92,84.92,0,0,0,84.92-84.92v-221A84.93,84.93,0,0,0,94.25,295.42Z"/><path class="cls-2" d="M94.25,295.42h0A84.93,84.93,0,0,0,9.32,380.35v221a84.92,84.92,0,0,0,84.93,84.92h0a84.92,84.92,0,0,0,84.92-84.92v-221A84.93,84.93,0,0,0,94.25,295.42Z"/><ellipse class="cls-2" cx="154.43" cy="354.92" rx="131.93" ry="136.02"/><ellipse class="cls-1" cx="131.93" cy="354.92" rx="131.93" ry="136.02"/><path class="cls-1" d="M84.2,295.42h0a84,84,0,0,0-84,84V655.21a84,84,0,0,0,84,84h0a84,84,0,0,0,84-84V379.44A84,84,0,0,0,84.2,295.42Z"/></g></g></svg>