<svg xmlns="http://www.w3.org/2000/svg" viewBox="0 0 1382.27 2613.38"><defs><style>.cls-1{fill:#062612;}.cls-2{fill:#4d2b12;}.cls-3{fill:#0b411e;}</style></defs><g id="Layer_2" data-name="Layer 2"><g id="Layer_1-2" data-name="Layer 1"><rect class="cls-1" x="372.61" y="969.71" width="746.07" height="1042.92" rx="155.54" transform="translate(811.71 3157.06) rotate(-155.7)"/><rect class="cls-2" x="742.09" y="640.27" width="565.75" height="483.56" transform="translate(1596.23 2107.7) rotate(-155.7)"/><rect class="cls-1" x="401.31" y="1008.19" width="677.6" height="947.2" rx="155.54" transform="translate(804.98 3136.86) rotate(-155.7)"/><rect class="cls-3" x="220.48" y="1057.25" width="746.07" height="1532.19" rx="191.21" transform="translate(384.25 3729.4) rotate(-155.7)"/><path class="cls-2" d="M1146.62,33.43h0A112.91,112.91,0,0,0,987,32.71L836.15,182.17a112.89,112.89,0,0,0-.71,159.66h0a112.9,112.9,0,0,0,159.66.72l150.8-149.46A112.9,112.9,0,0,0,1146.62,33.43Z"/><path class="cls-2" d="M626.82,566.82h0A112.91,112.91,0,0,0,627,726.49l150.3,150A112.89,112.89,0,0,0,937,876.27h0a112.88,112.88,0,0,0-.18-159.66l-150.29-150A112.91,112.91,0,0,0,626.82,566.82Z"/></g></g></svg>