<svg xmlns="http://www.w3.org/2000/svg" viewBox="0 0 1425.59 2621.69"><defs><style>.cls-1{fill:#062612;}.cls-2{fill:#4d2b12;}.cls-3{fill:#0b411e;}.cls-4{fill:#7b461e;}</style></defs><g id="Layer_2" data-name="Layer 2"><g id="Layer_1-2" data-name="Layer 1"><path class="cls-1" d="M555.49,1075.64l6.69-14.83A155.39,155.39,0,0,1,678,971.43l22.79-50.5a155.57,155.57,0,0,0-144.59,91.55l-53,117.45A189.92,189.92,0,0,1,555.49,1075.64Z"/><path class="cls-2" d="M766.84,982.56V874.33l-31-31-35,77.55L678,971.43A154.82,154.82,0,0,1,766.84,982.56Z"/><path class="cls-1" d="M678,971.43a155.39,155.39,0,0,0-115.83,89.38l-6.69,14.83a191.11,191.11,0,0,1,187.52-17l23.83,10.76v-86.8A154.82,154.82,0,0,0,678,971.43Z"/><path class="cls-3" d="M766.84,2184V1069.36L743,1058.6a191.16,191.16,0,0,0-239.82,71.33,193.23,193.23,0,0,0-13.13,24.27L17,2202.14c-43.45,96.25-.65,209.49,95.6,252.94L444,2604.71c96.25,43.45,209.5.65,253-95.6L812.51,2253.2C786.17,2244.73,766.84,2217,766.84,2184Z"/><path class="cls-2" d="M1146.62,41.74A112.91,112.91,0,0,0,987,41L853.58,173.2h313.09A112.93,112.93,0,0,0,1146.62,41.74Z"/><path class="cls-2" d="M766.84,559.28A112.91,112.91,0,0,0,627,734.8L735.82,843.38l31,31Z"/><path class="cls-2" d="M1353.3,101.25h0c.25-45.94-30.81-83.36-69.38-83.58l-181.74-1c-38.57-.21-70,36.86-70.3,82.8h0c-.26,46,30.8,83.37,69.37,83.59l181.74,1C1321.56,184.27,1353,147.2,1353.3,101.25Z"/><path class="cls-4" d="M1353.3,101.25h0c.25-45.94-30.81-83.36-69.38-83.58l-181.74-1c-38.57-.21-70,36.86-70.3,82.8h0c-.26,46,30.8,83.37,69.37,83.59l181.74,1C1321.56,184.27,1353,147.2,1353.3,101.25Z"/><ellipse class="cls-4" cx="1313.27" cy="127.41" rx="108.84" ry="112.22" transform="translate(1178.51 1439.94) rotate(-89.68)"/><ellipse class="cls-2" cx="1313.37" cy="108.84" rx="108.84" ry="112.22" transform="translate(1197.17 1421.59) rotate(-89.68)"/><path class="cls-2" d="M1353.35,91.41h0c.26-45.45-30.47-82.47-68.63-82.68l-226.8-1.27c-38.15-.22-69.29,36.46-69.55,81.91h0c-.25,45.45,30.48,82.47,68.63,82.69l226.8,1.27C1322,173.54,1353.1,136.87,1353.35,91.41Z"/><path class="cls-2" d="M686.87,295.42h0a84.94,84.94,0,0,0-84.93,84.93v221a84.93,84.93,0,0,0,84.93,84.92h0a84.92,84.92,0,0,0,84.92-84.92v-221A84.93,84.93,0,0,0,686.87,295.42Z"/><path class="cls-4" d="M686.87,295.42h0a84.94,84.94,0,0,0-84.93,84.93v221a84.93,84.93,0,0,0,84.93,84.92h0a84.92,84.92,0,0,0,84.92-84.92v-221A84.93,84.93,0,0,0,686.87,295.42Z"/><ellipse class="cls-4" cx="747.06" cy="354.92" rx="131.93" ry="136.02"/><ellipse class="cls-2" cx="724.56" cy="354.92" rx="131.93" ry="136.02"/><path class="cls-2" d="M676.82,295.42h0a84,84,0,0,0-84,84V655.21a84,84,0,0,0,84,84h0a84,84,0,0,0,84-84V379.44A84,84,0,0,0,676.82,295.42Z"/></g></g></svg>