<svg xmlns="http://www.w3.org/2000/svg" viewBox="0 0 1404.13 2124.09"><defs><style>.cls-1{fill:#062612;}.cls-2{fill:#4d2b12;}.cls-3{fill:#0b411e;}</style></defs><g id="Layer_2" data-name="Layer 2"><g id="Layer_1-2" data-name="Layer 1"><rect class="cls-1" x="-265.34" y="799.39" width="746.07" height="1042.92" rx="155.54" transform="translate(-5.5 -201.29) rotate(-24.36)"/><rect class="cls-2" x="-455.18" y="470.26" width="565.75" height="483.56" transform="translate(220.68 -370.98) rotate(-24.36)"/><rect class="cls-1" x="-225.58" y="837.87" width="677.6" height="947.2" rx="155.54" transform="translate(-1.14 -199.84) rotate(-24.36)"/><rect class="cls-3" x="-102.75" y="884.58" width="746.07" height="1581.13" rx="191.21" transform="translate(-137.17 -102.68) rotate(-24.36)"/><path class="cls-2" d="M225.48,396.37h0a112.91,112.91,0,0,1,0,159.67L75.35,706.17a112.91,112.91,0,0,1-159.67,0h0a112.91,112.91,0,0,1,0-159.67L65.81,396.37A112.91,112.91,0,0,1,225.48,396.37Z" transform="translate(529.73 -363.3)"/></g></g></svg>