<?xml version="1.0" standalone="no"?>
<!DOCTYPE svg PUBLIC "-//W3C//DTD SVG 20010904//EN"
 "http://www.w3.org/TR/2001/REC-SVG-20010904/DTD/svg10.dtd">
<svg version="1.0" xmlns="http://www.w3.org/2000/svg"
 width="632.000000pt" height="632.000000pt" viewBox="0 0 632.000000 632.000000"
 preserveAspectRatio="xMidYMid meet">
<metadata>
Created by potrace 1.14, written by Peter Selinger 2001-2017
</metadata>
<g transform="translate(0.000000,632.000000) scale(0.100000,-0.100000)"
fill="#000000" stroke="none">
<path d="M3495 6309 c-168 -24 -361 -104 -493 -204 -40 -30 -77 -55 -81 -55
-5 0 -38 13 -74 30 -132 60 -214 75 -397 74 -149 -1 -174 -3 -253 -27 -212
-65 -398 -198 -520 -370 l-41 -59 -76 7 c-148 13 -327 -28 -470 -108 -99 -55
-242 -196 -298 -293 -23 -40 -56 -114 -74 -165 -28 -83 -32 -110 -36 -230 -5
-166 14 -255 84 -397 l45 -93 -64 -65 c-107 -107 -177 -273 -177 -419 0 -80
31 -200 72 -278 39 -74 162 -201 231 -237 38 -20 47 -29 42 -45 -26 -91 -35
-134 -35 -160 0 -49 29 -147 55 -187 l24 -37 -21 -83 c-39 -155 -11 -319 76
-451 97 -146 274 -227 432 -198 37 6 67 11 69 9 1 -2 10 -228 19 -503 11 -319
23 -531 32 -585 89 -510 507 -903 1024 -961 151 -17 1243 24 1371 52 266 57
461 156 640 326 218 208 344 460 380 764 8 74 7 192 -5 529 -9 238 -14 435
-12 438 3 2 28 -1 56 -8 30 -7 86 -11 130 -8 259 15 456 286 419 577 -10 86
-39 168 -80 232 l-31 49 37 41 c47 52 92 149 107 228 23 121 -23 274 -111 373
l-42 48 65 61 c165 153 258 389 242 609 -20 277 -173 511 -418 640 l-72 38
-22 100 c-93 415 -428 722 -844 772 -81 10 -96 16 -157 57 -211 143 -497 208
-748 172z m910 -2387 c167 -61 288 -196 329 -367 15 -61 31 -383 43 -860 5
-220 4 -257 -11 -310 -52 -176 -181 -307 -356 -360 -69 -20 -444 -37 -540 -24
-68 10 -172 53 -226 94 -31 24 -32 26 -36 124 -3 81 -8 106 -24 128 -50 67
-97 82 -231 74 -102 -7 -132 -21 -168 -82 -18 -30 -20 -49 -17 -160 l2 -126
-64 -61 c-71 -66 -159 -113 -244 -131 -29 -6 -151 -14 -270 -17 -184 -6 -227
-4 -281 10 -191 49 -344 208 -380 396 -6 30 -18 282 -27 560 -19 563 -18 569
43 692 64 127 187 226 329 263 41 11 130 18 289 22 250 7 290 1 397 -53 69
-35 170 -134 205 -201 59 -111 64 -141 77 -500 6 -183 14 -334 16 -337 3 -2
25 0 50 4 25 5 62 9 83 10 32 0 37 3 37 23 0 12 -5 126 -10 252 -5 127 -10
298 -11 381 -1 136 2 158 24 221 55 159 163 267 324 325 66 24 262 38 468 34
93 -2 133 -8 180 -24z m953 -1284 c7 -7 12 -21 12 -33 0 -44 -60 -63 -80 -26
-14 27 -13 37 6 55 18 19 45 21 62 4z m-141 -90 c47 -44 16 -118 -49 -118 -42
0 -68 25 -68 67 0 65 69 96 117 51z m-3992 -18 c37 -41 -24 -97 -63 -58 -18
18 -15 55 6 67 25 15 37 13 57 -9z m188 -91 c24 -33 13 -77 -24 -98 -73 -41
-142 55 -83 114 25 25 83 16 107 -16z m3102 -823 c46 -19 92 -63 123 -115 38
-64 38 -161 0 -243 -110 -240 -318 -404 -590 -467 -112 -27 -267 -40 -325 -30
-182 34 -262 255 -148 405 44 57 101 84 207 95 117 13 208 33 256 58 48 25
104 85 132 141 32 64 56 96 96 127 67 50 169 62 249 29z"/>
<path d="M4210 3178 c38 -63 20 -179 -37 -230 -53 -48 -144 -61 -207 -28 l-39
19 7 -157 c8 -174 16 -199 76 -239 27 -19 46 -23 114 -23 95 0 139 17 174 70
l24 35 -6 240 c-6 215 -9 243 -28 276 -19 34 -63 69 -87 69 -6 0 -2 -15 9 -32z"/>
<path d="M2708 3102 c110 -154 -49 -360 -220 -284 l-45 20 4 -147 c6 -178 13
-210 58 -250 44 -38 91 -47 183 -34 58 9 80 17 103 39 48 46 50 68 40 338 -9
219 -12 250 -30 279 -21 34 -68 67 -96 67 -15 0 -14 -3 3 -28z"/>
</g>
</svg>
