<svg xmlns="http://www.w3.org/2000/svg" viewBox="0 0 952.1 395.2"><defs><style>.cls-1{fill:#0b6793;}.cls-2{fill:#1cb0f6;}.cls-3{fill:#168cc3;}.cls-4{fill:#e5dec4;}.cls-5{fill:#fff5d3;}</style></defs><g id="Layer_2" data-name="Layer 2"><g id="Layer_2-2" data-name="Layer 2"><rect class="cls-1" x="0.88" y="59.52" width="951.23" height="335.67" rx="18.41"/><rect class="cls-2" width="951.23" height="335.67" rx="18.41"/><rect class="cls-1" x="27.54" y="21.7" width="896.15" height="292.28" rx="18.41"/><rect class="cls-3" x="53.7" y="42.32" width="843.83" height="259.28" rx="18.41"/><rect class="cls-4" x="774.66" y="178.19" width="126.05" height="51.82" rx="16.65"/><rect class="cls-5" x="774.66" y="171.04" width="126.05" height="51.82" rx="16.65"/><rect class="cls-4" x="252.71" y="244.99" width="391.11" height="51.82" rx="16.65"/><rect class="cls-5" x="252.71" y="237.83" width="391.11" height="51.82" rx="16.65"/><rect class="cls-4" x="48.65" y="178.19" width="96.36" height="51.82" rx="16.65"/><rect class="cls-5" x="48.65" y="171.04" width="96.36" height="51.82" rx="16.65"/><rect class="cls-4" x="717.32" y="178.19" width="51.82" height="51.82" rx="10.48"/><rect class="cls-5" x="717.32" y="171.04" width="51.82" height="51.82" rx="10.48"/><rect class="cls-4" x="660.66" y="178.19" width="51.82" height="51.82" rx="10.48"/><rect class="cls-5" x="660.66" y="171.04" width="51.82" height="51.82" rx="10.48"/><rect class="cls-4" x="603.99" y="178.19" width="51.82" height="51.82" rx="10.48"/><rect class="cls-5" x="603.99" y="171.04" width="51.82" height="51.82" rx="10.48"/><rect class="cls-4" x="547.32" y="178.19" width="51.82" height="51.82" rx="10.48"/><rect class="cls-5" x="547.32" y="171.04" width="51.82" height="51.82" rx="10.48"/><rect class="cls-4" x="490.66" y="178.19" width="51.82" height="51.82" rx="10.48"/><rect class="cls-5" x="490.66" y="171.04" width="51.82" height="51.82" rx="10.48"/><rect class="cls-4" x="433.99" y="178.19" width="51.82" height="51.82" rx="10.48"/><rect class="cls-5" x="433.99" y="171.04" width="51.82" height="51.82" rx="10.48"/><rect class="cls-4" x="377.33" y="178.19" width="51.82" height="51.82" rx="10.48"/><rect class="cls-5" x="377.33" y="171.04" width="51.82" height="51.82" rx="10.48"/><rect class="cls-4" x="320.66" y="178.19" width="51.82" height="51.82" rx="10.48"/><rect class="cls-5" x="320.66" y="171.04" width="51.82" height="51.82" rx="10.48"/><rect class="cls-4" x="263.99" y="178.19" width="51.82" height="51.82" rx="10.48"/><rect class="cls-5" x="263.99" y="171.04" width="51.82" height="51.82" rx="10.48"/><rect class="cls-4" x="207.33" y="178.19" width="51.82" height="51.82" rx="10.48"/><rect class="cls-5" x="207.33" y="171.04" width="51.82" height="51.82" rx="10.48"/><rect class="cls-4" x="150.66" y="178.19" width="51.82" height="51.82" rx="10.48"/><rect class="cls-5" x="150.66" y="171.04" width="51.82" height="51.82" rx="10.48"/><rect class="cls-4" x="705.43" y="244.62" width="51.82" height="51.82" rx="10.48"/><rect class="cls-5" x="705.43" y="237.46" width="51.82" height="51.82" rx="10.48"/><rect class="cls-4" x="763.34" y="244.62" width="51.82" height="51.82" rx="10.48"/><rect class="cls-5" x="763.34" y="237.46" width="51.82" height="51.82" rx="10.48"/><rect class="cls-4" x="648.77" y="244.62" width="51.82" height="51.82" rx="10.48"/><rect class="cls-5" x="648.77" y="237.46" width="51.82" height="51.82" rx="10.48"/><rect class="cls-4" x="195.44" y="244.62" width="51.82" height="51.82" rx="10.48"/><rect class="cls-5" x="195.44" y="237.46" width="51.82" height="51.82" rx="10.48"/><rect class="cls-4" x="138.77" y="244.62" width="51.82" height="51.82" rx="10.48"/><rect class="cls-5" x="138.77" y="237.46" width="51.82" height="51.82" rx="10.48"/><rect class="cls-4" x="820.34" y="112.83" width="82.03" height="51.82" rx="16.65"/><rect class="cls-5" x="820.34" y="105.67" width="82.03" height="51.82" rx="16.65"/><rect class="cls-4" x="820.34" y="244.09" width="82.03" height="51.82" rx="16.65"/><rect class="cls-5" x="820.34" y="236.93" width="82.03" height="51.82" rx="16.65"/><rect class="cls-4" x="48.65" y="112.83" width="82.03" height="51.82" rx="16.65"/><rect class="cls-5" x="48.65" y="105.67" width="82.03" height="51.82" rx="16.65"/><rect class="cls-4" x="48.65" y="244.62" width="82.03" height="51.82" rx="16.65"/><rect class="cls-5" x="48.65" y="237.46" width="82.03" height="51.82" rx="16.65"/><rect class="cls-4" x="760.7" y="112.83" width="51.82" height="51.82" rx="10.48"/><rect class="cls-5" x="760.7" y="105.67" width="51.82" height="51.82" rx="10.48"/><rect class="cls-4" x="704.03" y="112.83" width="51.82" height="51.82" rx="10.48"/><rect class="cls-5" x="704.03" y="105.67" width="51.82" height="51.82" rx="10.48"/><rect class="cls-4" x="647.37" y="112.83" width="51.82" height="51.82" rx="10.48"/><rect class="cls-5" x="647.37" y="105.67" width="51.82" height="51.82" rx="10.48"/><rect class="cls-4" x="590.7" y="112.83" width="51.82" height="51.82" rx="10.48"/><rect class="cls-5" x="590.7" y="105.67" width="51.82" height="51.82" rx="10.48"/><rect class="cls-4" x="534.03" y="112.83" width="51.82" height="51.82" rx="10.48"/><rect class="cls-5" x="534.03" y="105.67" width="51.82" height="51.82" rx="10.48"/><rect class="cls-4" x="477.37" y="112.83" width="51.82" height="51.82" rx="10.48"/><rect class="cls-5" x="477.37" y="105.67" width="51.82" height="51.82" rx="10.48"/><rect class="cls-4" x="420.7" y="112.83" width="51.82" height="51.82" rx="10.48"/><rect class="cls-5" x="420.7" y="105.67" width="51.82" height="51.82" rx="10.48"/><rect class="cls-4" x="364.04" y="112.83" width="51.82" height="51.82" rx="10.48"/><rect class="cls-5" x="364.04" y="105.67" width="51.82" height="51.82" rx="10.48"/><rect class="cls-4" x="307.37" y="112.83" width="51.82" height="51.82" rx="10.48"/><rect class="cls-5" x="307.37" y="105.67" width="51.82" height="51.82" rx="10.48"/><rect class="cls-4" x="250.7" y="112.83" width="51.82" height="51.82" rx="10.48"/><rect class="cls-5" x="250.7" y="105.67" width="51.82" height="51.82" rx="10.48"/><rect class="cls-4" x="194.04" y="112.83" width="51.82" height="51.82" rx="10.48"/><rect class="cls-5" x="194.04" y="105.67" width="51.82" height="51.82" rx="10.48"/><rect class="cls-4" x="137.37" y="112.83" width="51.82" height="51.82" rx="10.48"/><rect class="cls-5" x="137.37" y="105.67" width="51.82" height="51.82" rx="10.48"/><rect class="cls-4" x="788.78" y="46.65" width="111.93" height="51.82" rx="16.65"/><rect class="cls-5" x="788.78" y="39.49" width="111.93" height="51.82" rx="16.65"/><rect class="cls-4" x="730.98" y="46.65" width="51.82" height="51.82" rx="10.48"/><rect class="cls-5" x="730.98" y="39.49" width="51.82" height="51.82" rx="10.48"/><rect class="cls-4" x="674.31" y="46.65" width="51.82" height="51.82" rx="10.48"/><rect class="cls-5" x="674.31" y="39.49" width="51.82" height="51.82" rx="10.48"/><rect class="cls-4" x="617.64" y="46.65" width="51.82" height="51.82" rx="10.48"/><rect class="cls-5" x="617.64" y="39.49" width="51.82" height="51.82" rx="10.48"/><rect class="cls-4" x="560.98" y="46.65" width="51.82" height="51.82" rx="10.48"/><rect class="cls-5" x="560.98" y="39.49" width="51.82" height="51.82" rx="10.48"/><rect class="cls-4" x="504.31" y="46.65" width="51.82" height="51.82" rx="10.48"/><rect class="cls-5" x="504.31" y="39.49" width="51.82" height="51.82" rx="10.48"/><rect class="cls-4" x="447.64" y="46.65" width="51.82" height="51.82" rx="10.48"/><rect class="cls-5" x="447.64" y="39.49" width="51.82" height="51.82" rx="10.48"/><rect class="cls-4" x="390.98" y="46.65" width="51.82" height="51.82" rx="10.48"/><rect class="cls-5" x="390.98" y="39.49" width="51.82" height="51.82" rx="10.48"/><rect class="cls-4" x="334.31" y="46.65" width="51.82" height="51.82" rx="10.48"/><rect class="cls-5" x="334.31" y="39.49" width="51.82" height="51.82" rx="10.48"/><rect class="cls-4" x="277.65" y="46.65" width="51.82" height="51.82" rx="10.48"/><rect class="cls-5" x="277.65" y="39.49" width="51.82" height="51.82" rx="10.48"/><rect class="cls-4" x="220.98" y="46.65" width="51.82" height="51.82" rx="10.48"/><rect class="cls-5" x="220.98" y="39.49" width="51.82" height="51.82" rx="10.48"/><rect class="cls-4" x="164.31" y="46.65" width="51.82" height="51.82" rx="10.48"/><rect class="cls-5" x="164.31" y="39.49" width="51.82" height="51.82" rx="10.48"/><rect class="cls-4" x="107.65" y="46.65" width="51.82" height="51.82" rx="10.48"/><rect class="cls-5" x="107.65" y="39.49" width="51.82" height="51.82" rx="10.48"/><rect class="cls-4" x="50.98" y="46.65" width="51.82" height="51.82" rx="10.48"/><rect class="cls-5" x="50.98" y="39.49" width="51.82" height="51.82" rx="10.48"/></g></g></svg>