<svg xmlns="http://www.w3.org/2000/svg" viewBox="0 0 952.1 532"><defs><style>.cls-1{fill:none;stroke:#0d1b50;stroke-miterlimit:10;stroke-width:20px;}.cls-2{fill:#0b6793;}.cls-3{fill:#1cb0f6;}.cls-4{fill:#168cc3;}.cls-5{fill:#e5dec4;}.cls-6{fill:#fff5d3;}</style></defs><g id="Layer_2" data-name="Layer 2"><g id="Layer_2-2" data-name="Layer 2"><path class="cls-1" d="M450.89,164.86c-.79-26.39-33-72.08-81.93-94.93C342.43,57.54,263,46.37,218.1,60.87c-33.48,10.81-40,22.37-35,43.72,7.91,34.15,93.62,45.12,115,10.24,7.73-12.59,0-26.58,13.4-48.84,7.23-12,16.07-18.83,28.35-28.36A207.59,207.59,0,0,1,389.44,9.27"/><rect class="cls-2" x="0.88" y="196.32" width="951.23" height="335.67" rx="18.41"/><rect class="cls-3" y="136.8" width="951.23" height="335.67" rx="18.41"/><rect class="cls-2" x="27.54" y="158.5" width="896.15" height="292.28" rx="18.41"/><rect class="cls-4" x="53.7" y="179.12" width="843.83" height="259.28" rx="18.41"/><rect class="cls-5" x="774.66" y="314.99" width="126.05" height="51.82" rx="16.65"/><rect class="cls-6" x="774.66" y="307.83" width="126.05" height="51.82" rx="16.65"/><rect class="cls-5" x="252.71" y="381.79" width="391.11" height="51.82" rx="16.65"/><rect class="cls-6" x="252.71" y="374.63" width="391.11" height="51.82" rx="16.65"/><rect class="cls-5" x="48.65" y="314.99" width="96.36" height="51.82" rx="16.65"/><rect class="cls-6" x="48.65" y="307.83" width="96.36" height="51.82" rx="16.65"/><rect class="cls-5" x="717.32" y="314.99" width="51.82" height="51.82" rx="10.48"/><rect class="cls-6" x="717.32" y="307.83" width="51.82" height="51.82" rx="10.48"/><rect class="cls-5" x="660.66" y="314.99" width="51.82" height="51.82" rx="10.48"/><rect class="cls-6" x="660.66" y="307.83" width="51.82" height="51.82" rx="10.48"/><rect class="cls-5" x="603.99" y="314.99" width="51.82" height="51.82" rx="10.48"/><rect class="cls-6" x="603.99" y="307.83" width="51.82" height="51.82" rx="10.48"/><rect class="cls-5" x="547.32" y="314.99" width="51.82" height="51.82" rx="10.48"/><rect class="cls-6" x="547.32" y="307.83" width="51.82" height="51.82" rx="10.48"/><rect class="cls-5" x="490.66" y="314.99" width="51.82" height="51.82" rx="10.48"/><rect class="cls-6" x="490.66" y="307.83" width="51.82" height="51.82" rx="10.48"/><rect class="cls-5" x="433.99" y="314.99" width="51.82" height="51.82" rx="10.48"/><rect class="cls-6" x="433.99" y="307.83" width="51.82" height="51.82" rx="10.48"/><rect class="cls-5" x="377.33" y="314.99" width="51.82" height="51.82" rx="10.48"/><rect class="cls-6" x="377.33" y="307.83" width="51.82" height="51.82" rx="10.48"/><rect class="cls-5" x="320.66" y="314.99" width="51.82" height="51.82" rx="10.48"/><rect class="cls-6" x="320.66" y="307.83" width="51.82" height="51.82" rx="10.48"/><rect class="cls-5" x="263.99" y="314.99" width="51.82" height="51.82" rx="10.48"/><rect class="cls-6" x="263.99" y="307.83" width="51.82" height="51.82" rx="10.48"/><rect class="cls-5" x="207.33" y="314.99" width="51.82" height="51.82" rx="10.48"/><rect class="cls-6" x="207.33" y="307.83" width="51.82" height="51.82" rx="10.48"/><rect class="cls-5" x="150.66" y="314.99" width="51.82" height="51.82" rx="10.48"/><rect class="cls-6" x="150.66" y="307.83" width="51.82" height="51.82" rx="10.48"/><rect class="cls-5" x="705.43" y="381.42" width="51.82" height="51.82" rx="10.48"/><rect class="cls-6" x="705.43" y="374.26" width="51.82" height="51.82" rx="10.48"/><rect class="cls-5" x="763.34" y="381.42" width="51.82" height="51.82" rx="10.48"/><rect class="cls-6" x="763.34" y="374.26" width="51.82" height="51.82" rx="10.48"/><rect class="cls-5" x="648.77" y="381.42" width="51.82" height="51.82" rx="10.48"/><rect class="cls-6" x="648.77" y="374.26" width="51.82" height="51.82" rx="10.48"/><rect class="cls-5" x="195.44" y="381.42" width="51.82" height="51.82" rx="10.48"/><rect class="cls-6" x="195.44" y="374.26" width="51.82" height="51.82" rx="10.48"/><rect class="cls-5" x="138.77" y="381.42" width="51.82" height="51.82" rx="10.48"/><rect class="cls-6" x="138.77" y="374.26" width="51.82" height="51.82" rx="10.48"/><rect class="cls-5" x="820.34" y="249.63" width="82.03" height="51.82" rx="16.65"/><rect class="cls-6" x="820.34" y="242.47" width="82.03" height="51.82" rx="16.65"/><rect class="cls-5" x="820.34" y="380.89" width="82.03" height="51.82" rx="16.65"/><rect class="cls-6" x="820.34" y="373.73" width="82.03" height="51.82" rx="16.65"/><rect class="cls-5" x="48.65" y="249.63" width="82.03" height="51.82" rx="16.65"/><rect class="cls-6" x="48.65" y="242.47" width="82.03" height="51.82" rx="16.65"/><rect class="cls-5" x="48.65" y="381.42" width="82.03" height="51.82" rx="16.65"/><rect class="cls-6" x="48.65" y="374.26" width="82.03" height="51.82" rx="16.65"/><rect class="cls-5" x="760.7" y="249.63" width="51.82" height="51.82" rx="10.48"/><rect class="cls-6" x="760.7" y="242.47" width="51.82" height="51.82" rx="10.48"/><rect class="cls-5" x="704.03" y="249.63" width="51.82" height="51.82" rx="10.48"/><rect class="cls-6" x="704.03" y="242.47" width="51.82" height="51.82" rx="10.48"/><rect class="cls-5" x="647.37" y="249.63" width="51.82" height="51.82" rx="10.48"/><rect class="cls-6" x="647.37" y="242.47" width="51.82" height="51.82" rx="10.48"/><rect class="cls-5" x="590.7" y="249.63" width="51.82" height="51.82" rx="10.48"/><rect class="cls-6" x="590.7" y="242.47" width="51.82" height="51.82" rx="10.48"/><rect class="cls-5" x="534.03" y="249.63" width="51.82" height="51.82" rx="10.48"/><rect class="cls-6" x="534.03" y="242.47" width="51.82" height="51.82" rx="10.48"/><rect class="cls-5" x="477.37" y="249.63" width="51.82" height="51.82" rx="10.48"/><rect class="cls-6" x="477.37" y="242.47" width="51.82" height="51.82" rx="10.48"/><rect class="cls-5" x="420.7" y="249.63" width="51.82" height="51.82" rx="10.48"/><rect class="cls-6" x="420.7" y="242.47" width="51.82" height="51.82" rx="10.48"/><rect class="cls-5" x="364.04" y="249.63" width="51.82" height="51.82" rx="10.48"/><rect class="cls-6" x="364.04" y="242.47" width="51.82" height="51.82" rx="10.48"/><rect class="cls-5" x="307.37" y="249.63" width="51.82" height="51.82" rx="10.48"/><rect class="cls-6" x="307.37" y="242.47" width="51.82" height="51.82" rx="10.48"/><rect class="cls-5" x="250.7" y="249.63" width="51.82" height="51.82" rx="10.48"/><rect class="cls-6" x="250.7" y="242.47" width="51.82" height="51.82" rx="10.48"/><rect class="cls-5" x="194.04" y="249.63" width="51.82" height="51.82" rx="10.48"/><rect class="cls-6" x="194.04" y="242.47" width="51.82" height="51.82" rx="10.48"/><rect class="cls-5" x="137.37" y="249.63" width="51.82" height="51.82" rx="10.48"/><rect class="cls-6" x="137.37" y="242.47" width="51.82" height="51.82" rx="10.48"/><rect class="cls-5" x="788.78" y="183.45" width="111.93" height="51.82" rx="16.65"/><rect class="cls-6" x="788.78" y="176.29" width="111.93" height="51.82" rx="16.65"/><rect class="cls-5" x="730.98" y="183.45" width="51.82" height="51.82" rx="10.48"/><rect class="cls-6" x="730.98" y="176.29" width="51.82" height="51.82" rx="10.48"/><rect class="cls-5" x="674.31" y="183.45" width="51.82" height="51.82" rx="10.48"/><rect class="cls-6" x="674.31" y="176.29" width="51.82" height="51.82" rx="10.48"/><rect class="cls-5" x="617.64" y="183.45" width="51.82" height="51.82" rx="10.48"/><rect class="cls-6" x="617.64" y="176.29" width="51.82" height="51.82" rx="10.48"/><rect class="cls-5" x="560.98" y="183.45" width="51.82" height="51.82" rx="10.48"/><rect class="cls-6" x="560.98" y="176.29" width="51.82" height="51.82" rx="10.48"/><rect class="cls-5" x="504.31" y="183.45" width="51.82" height="51.82" rx="10.48"/><rect class="cls-6" x="504.31" y="176.29" width="51.82" height="51.82" rx="10.48"/><rect class="cls-5" x="447.64" y="183.45" width="51.82" height="51.82" rx="10.48"/><rect class="cls-6" x="447.64" y="176.29" width="51.82" height="51.82" rx="10.48"/><rect class="cls-5" x="390.98" y="183.45" width="51.82" height="51.82" rx="10.48"/><rect class="cls-6" x="390.98" y="176.29" width="51.82" height="51.82" rx="10.48"/><rect class="cls-5" x="334.31" y="183.45" width="51.82" height="51.82" rx="10.48"/><rect class="cls-6" x="334.31" y="176.29" width="51.82" height="51.82" rx="10.48"/><rect class="cls-5" x="277.65" y="183.45" width="51.82" height="51.82" rx="10.48"/><rect class="cls-6" x="277.65" y="176.29" width="51.82" height="51.82" rx="10.48"/><rect class="cls-5" x="220.98" y="183.45" width="51.82" height="51.82" rx="10.48"/><rect class="cls-6" x="220.98" y="176.29" width="51.82" height="51.82" rx="10.48"/><rect class="cls-5" x="164.31" y="183.45" width="51.82" height="51.82" rx="10.48"/><rect class="cls-6" x="164.31" y="176.29" width="51.82" height="51.82" rx="10.48"/><rect class="cls-5" x="107.65" y="183.45" width="51.82" height="51.82" rx="10.48"/><rect class="cls-6" x="107.65" y="176.29" width="51.82" height="51.82" rx="10.48"/><rect class="cls-5" x="50.98" y="183.45" width="51.82" height="51.82" rx="10.48"/><rect class="cls-6" x="50.98" y="176.29" width="51.82" height="51.82" rx="10.48"/></g></g></svg>