<svg xmlns="http://www.w3.org/2000/svg" viewBox="0 0 183 288"><defs><style>.cls-1{fill:#ee635b;}.cls-2{fill:#f17a7a;}.cls-3{fill:#920707;}</style></defs><g id="Layer_2" data-name="Layer 2"><g id="Layer_2-2" data-name="Layer 2"><rect class="cls-1" width="183" height="288" rx="91"/><path class="cls-2" d="M166,81.09A60.09,60.09,0,0,0,105.91,21h0A9.9,9.9,0,0,0,96,30.91V127a15,15,0,0,0,15,15h40a15,15,0,0,0,15-15Z"/><path class="cls-2" d="M17,81.09A60.1,60.1,0,0,1,77.09,21h0A9.9,9.9,0,0,1,87,30.91V127a15,15,0,0,1-15,15H32a15,15,0,0,1-15-15Z"/><path class="cls-3" d="M92,69h0a13,13,0,0,1,13,13v32a13,13,0,0,1-13,13h0a13,13,0,0,1-13-13V82A13,13,0,0,1,92,69Z"/></g></g></svg>