<svg xmlns="http://www.w3.org/2000/svg" viewBox="0 0 1824.07 1107.31"><defs><style>.cls-1{fill:#2f1e80;}.cls-2{fill:#462dbf;}.cls-3{fill:#590075;}.cls-4{fill:#76009c;}.cls-5{fill:#520007;}.cls-6{fill:#78000a;}.cls-7{fill:#945700;}.cls-8{fill:#cd7900;}.cls-9{fill:#804f35;}.cls-10{fill:#ffb100;}.cls-11{fill:#4d2f1f;}.cls-12{fill:none;stroke:#3a6e00;stroke-linecap:round;stroke-miterlimit:10;stroke-width:15px;}.cls-13{fill:#58a700;}.cls-14{fill:#e5e5e5;}.cls-15{fill:#fff;}.cls-16{fill:#e90006;}.cls-17{fill:#9c7000;}.cls-18{fill:#ffb800;}.cls-19{fill:#a56644;}.cls-20{fill:#e5a259;}.cls-21{fill:#ddf4ff;}.cls-22{fill:#587d00;}</style></defs><g id="Layer_2" data-name="Layer 2"><g id="Layer_1-2" data-name="Layer 1"><g id="Room"><g id="Wall_Art" data-name="Wall Art"><rect class="cls-1" x="645.14" y="58.97" width="281.01" height="403.71" rx="13.24"/><rect class="cls-2" x="645.14" y="50.39" width="281.01" height="403.71" rx="13.24"/><rect class="cls-3" x="326.53" y="58.97" width="281.01" height="403.71" rx="13.24"/><rect class="cls-4" x="326.53" y="50.39" width="281.01" height="403.71" rx="13.24"/><rect class="cls-5" x="7.92" y="60.29" width="281.01" height="403.71" rx="13.24"/><rect class="cls-6" x="7.92" y="53.05" width="281.01" height="403.71" rx="13.24"/></g><g id="Shelf"><rect class="cls-7" x="1725.66" y="384.62" width="84.55" height="722.69" rx="18.33"/><rect class="cls-7" x="1236.86" y="384.62" width="84.55" height="722.69" rx="18.33"/><rect class="cls-7" x="1485.67" y="479.38" width="55.94" height="553.56" transform="translate(2269.8 -757.48) rotate(90)"/><rect class="cls-7" x="1485.67" y="634.4" width="55.94" height="553.56" transform="translate(2424.82 -602.46) rotate(90)"/><rect class="cls-8" x="1500.73" y="676.76" width="49.62" height="553.56" transform="translate(2479.08 -572) rotate(90)"/><rect class="cls-8" x="1500.73" y="501.95" width="49.62" height="553.56" transform="translate(2304.27 -746.81) rotate(90)"/><rect class="cls-7" x="1501.98" y="153.65" width="49.62" height="553.56" transform="translate(1957.22 -1096.36) rotate(90)"/><rect class="cls-7" x="1503.23" y="313.95" width="49.62" height="553.56" transform="translate(2118.77 -937.32) rotate(90)"/><rect class="cls-8" x="1500.73" y="325.82" width="49.62" height="553.56" transform="translate(2128.14 -922.94) rotate(90)"/><rect class="cls-8" x="1500.73" y="145.74" width="49.62" height="553.56" transform="translate(1948.05 -1103.02) rotate(90)"/><rect class="cls-8" x="1739.52" y="382.86" width="84.55" height="722.69" rx="18.33"/><rect class="cls-8" x="1223" y="382.86" width="84.55" height="722.69" rx="18.33"/></g><g id="Chest"><rect class="cls-9" x="260.05" y="974.24" width="220.53" height="68.66" rx="15.86"/><path class="cls-10" d="M385.7,1006.37a2.15,2.15,0,0,0-2.15-2.15h-2.88a2.16,2.16,0,0,0-2.16,2.15v10.16H362.12v-10.16a2.15,2.15,0,0,0-2.15-2.15h-2.88a2.15,2.15,0,0,0-2.15,2.15v15.19a2.22,2.22,0,0,0,.05.45,2,2,0,0,0,2,1.7h26.71a2,2,0,0,0,2-2v-.08a.13.13,0,0,0,0-.06Z"/><path class="cls-11" d="M373.87,988.8a3.56,3.56,0,1,0-5.7,2.83l-.8,5.81h5.9l-.8-5.81A3.56,3.56,0,0,0,373.87,988.8Z"/><rect class="cls-10" x="438.77" y="969.25" width="15.49" height="78.63" rx="4.79"/><rect class="cls-10" x="286.38" y="969.25" width="15.49" height="78.63" rx="4.68"/></g><path class="cls-12" d="M1721.52,175.87V88.38"/><path class="cls-13" d="M1721.52,151.5h0c-.51,0-1,0-1.52,0-19.08-.74-33.06-18.35-30.23-37.23l4.78-31.89c1.74-11.63,13.29-20.34,27-20.34h0c13.68,0,25.23,8.71,27,20.34l4.78,31.89c2.83,18.88-11.15,36.49-30.24,37.23C1722.53,151.49,1722,151.5,1721.52,151.5Z"/><path class="cls-14" d="M1741.38,231.51h-39.73a7.6,7.6,0,0,1-7.36-5.7l-12.56-48.18a7.61,7.61,0,0,1,7.37-9.53h64.84a7.62,7.62,0,0,1,7.37,9.53l-12.56,48.18A7.61,7.61,0,0,1,1741.38,231.51Z"/><g id="Citgo"><rect x="1576.27" y="113.17" width="85.37" height="108.84" rx="5.3"/><rect class="cls-15" x="1585.14" y="120.48" width="67.52" height="92.15" rx="5.3"/><path class="cls-16" d="M1615.92,147.37l-22.15,38.36a3.44,3.44,0,0,0,3,5.17h44.3a3.44,3.44,0,0,0,3-5.17l-22.15-38.36A3.44,3.44,0,0,0,1615.92,147.37Z"/></g><rect class="cls-7" x="1639.11" y="118.57" width="49.62" height="248.21" rx="20.88" transform="translate(1906.6 -1421.24) rotate(90)"/><rect class="cls-8" x="1639.11" y="108.68" width="49.62" height="248.21" rx="20.88" transform="translate(1896.7 -1431.13) rotate(90)"/><path class="cls-12" d="M1242.61,113.86V26.37"/><path class="cls-13" d="M1242.61,89.49h0c-.51,0-1,0-1.52,0-19.08-.74-33.06-18.34-30.23-37.23l4.78-31.89c1.74-11.63,13.29-20.34,27-20.34h0c13.68,0,25.22,8.71,27,20.34l4.78,31.89c2.83,18.89-11.15,36.49-30.24,37.23C1243.62,89.48,1243.12,89.49,1242.61,89.49Z"/><path class="cls-14" d="M1262.47,169.5h-39.73a7.62,7.62,0,0,1-7.37-5.7l-12.55-48.18a7.61,7.61,0,0,1,7.37-9.53H1275a7.62,7.62,0,0,1,7.37,9.53l-12.56,48.18A7.61,7.61,0,0,1,1262.47,169.5Z"/><g id="Award"><rect class="cls-9" x="1308.26" y="75.24" width="61.57" height="78.5" rx="5.3"/><rect class="cls-17" x="1314.69" y="84.55" width="48.7" height="48.7" rx="24.35"/><rect class="cls-18" x="1314.69" y="81.26" width="48.7" height="48.7" rx="24.35"/></g><rect class="cls-7" x="1269.7" y="55.24" width="49.62" height="248.21" rx="20.88" transform="translate(1473.86 -1115.16) rotate(90)"/><rect class="cls-8" x="1269.7" y="45.35" width="49.62" height="248.21" rx="20.88" transform="translate(1463.97 -1125.05) rotate(90)"/><g id="Bed"><rect class="cls-19" x="611.84" y="964.96" width="157.17" height="48.32" rx="13.94" transform="translate(1679.54 298.69) rotate(90)"/><rect class="cls-19" x="55.75" y="964.96" width="157.17" height="48.32" rx="13.94" transform="translate(1123.45 854.78) rotate(90)"/><rect class="cls-20" x="2.97" y="861.27" width="914.28" height="64.75" rx="22.93"/><rect class="cls-21" y="671.27" width="914.28" height="189.14" rx="40.5"/><rect class="cls-13" x="327.57" y="654.32" width="590.51" height="284.31" rx="35.19"/><path class="cls-13" d="M327.13,646.85H882.44A35.19,35.19,0,0,1,917.63,682V896a35.19,35.19,0,0,1-35.19,35.19H327.13a0,0,0,0,1,0,0V646.85A0,0,0,0,1,327.13,646.85Z"/><rect class="cls-22" x="220.66" y="626.27" width="235.5" height="332.76" rx="35.19"/><rect class="cls-21" x="6.09" y="605.12" width="205.81" height="75.59" rx="36.31"/></g></g></g></g></svg>