<svg xmlns="http://www.w3.org/2000/svg" xmlns:xlink="http://www.w3.org/1999/xlink" viewBox="0 0 885.05 949.54"><defs><style>.cls-1{fill:#082e15;}.cls-2{fill:#4d2b12;}.cls-3{fill:#ebe3e3;}.cls-4{mask:url(#mask);}.cls-5{opacity:0.5;}.cls-10,.cls-11,.cls-6,.cls-8{fill:none;stroke-miterlimit:10;}.cls-6{stroke:#fff;stroke-width:25px;}.cls-10,.cls-6{stroke-linecap:round;}.cls-7{fill:#fff;}.cls-10,.cls-8{stroke:#ffb800;stroke-width:15px;}.cls-9{fill:#ffb800;}.cls-11{stroke:#ffce8e;stroke-width:5px;}.cls-12{fill:#e0d29d;}.cls-13{fill:#807b7b;}.cls-14{fill:#945700;}.cls-15{fill:#cd7900;}.cls-16{fill:#fff5d3;}.cls-17{fill:#1cb0f6;}.cls-18{fill:#920707;}.cls-19{fill:#ee5b5b;}.cls-20{fill:#f17a7a;}.cls-21{fill:#ffe279;opacity:0.25;}.cls-22{fill:#333;}.cls-23{fill:#9d9d9d;}.cls-24{fill:#777;}.cls-25{fill:#4b4b4b;}.cls-26{filter:url(#luminosity-invert);}</style><filter id="luminosity-invert" filterUnits="userSpaceOnUse" color-interpolation-filters="sRGB"><feColorMatrix values="-1 0 0 0 1 0 -1 0 0 1 0 0 -1 0 1 0 0 0 1 0"/></filter><mask id="mask" x="76.52" y="365.17" width="358.85" height="219.01" maskUnits="userSpaceOnUse"><g class="cls-26"><path class="cls-1" d="M274.51,522l-16,30.58A18.28,18.28,0,0,1,235,560.79L94.12,499a18.27,18.27,0,0,1-8.84-25.21l25.93-49.45A18.27,18.27,0,0,1,137,417.23l131,80.71A18.26,18.26,0,0,1,274.51,522Z"/><circle class="cls-2" cx="374.33" cy="438.06" r="40.24"/><path class="cls-1" d="M350.22,439.31l14.42,22.14c4,6.15,2.05,14.69-4.48,19.55L255.5,558.94c-7.2,5.36-17.08,4.15-21.5-2.63l-23.33-35.79c-4.42-6.79-1.53-16.31,6.28-20.73l113.57-64.28C337.6,431.5,346.21,433.16,350.22,439.31Z"/></g></mask></defs><g id="Layer_2" data-name="Layer 2"><g id="Layer_1-2" data-name="Layer 1"><g id="Yodahe"><g id="Me"><path id="Shoes" class="cls-3" d="M348.11,864.49c-1.1,9.86-2.87,25.51-4.29,38a17.72,17.72,0,0,0,17.55,19.72l134.3.37a11.21,11.21,0,0,0,10.7-14.66L503,897.53a14.82,14.82,0,0,0-7.7-8.81l-85.58-41a16.84,16.84,0,0,0-10.18-1.41l-40.91,7A12.79,12.79,0,0,0,348.11,864.49Z"/><rect x="90.68" y="626.39" width="305.42" height="104.89" rx="23.94"/><rect x="245.46" y="711.1" width="250.03" height="80.59" rx="29.1" transform="translate(1121.87 380.92) rotate(90)"/><path id="Shoes-2" data-name="Shoes" class="cls-3" d="M319.75,872.41c-1.1,9.85-2.87,25.51-4.3,38A17.72,17.72,0,0,0,333,930.14l134.3.38A11.22,11.22,0,0,0,478,915.85l-3.37-10.41a14.81,14.81,0,0,0-7.69-8.8l-85.58-41a17,17,0,0,0-10.19-1.42l-40.9,7.05A12.78,12.78,0,0,0,319.75,872.41Z"/><path class="cls-1" d="M274.51,522l-16,30.58A18.28,18.28,0,0,1,235,560.79L94.12,499a18.27,18.27,0,0,1-8.84-25.21l25.93-49.45A18.27,18.27,0,0,1,137,417.23l131,80.71A18.26,18.26,0,0,1,274.51,522Z"/><circle class="cls-2" cx="374.33" cy="438.06" r="40.24"/><path class="cls-1" d="M350.22,439.31l14.42,22.14c4,6.15,2.05,14.69-4.48,19.55L255.5,558.94c-7.2,5.36-17.08,4.15-21.5-2.63l-23.33-35.79c-4.42-6.79-1.53-16.31,6.28-20.73l113.57-64.28C337.6,431.5,346.21,433.16,350.22,439.31Z"/><g class="cls-4"><rect class="cls-5" x="76.52" y="365.17" width="358.85" height="219.01"/></g><circle cx="270.24" cy="193.28" r="38.28"/><path class="cls-2" d="M284.51,281.13v36.22c0,4.24,2.91,7.68,6.5,7.68h17.77c5,0,8.14-6.42,5.63-11.54l-17.77-36.22C293.3,270.48,284.51,273.27,284.51,281.13Z"/><path class="cls-2" d="M171.61,166.5h64A61.47,61.47,0,0,1,297.06,228V343.86a58.4,58.4,0,0,1-58.4,58.4H210.61a83.42,83.42,0,0,1-83.42-83.42V210.91A44.41,44.41,0,0,1,171.61,166.5Z"/><circle cx="262.32" cy="174.15" r="38.28"/><circle cx="204.2" cy="163.67" r="53.38"/><circle cx="128.39" cy="315.33" r="27.53"/><circle cx="107.75" cy="266.71" r="40.91"/><circle cx="140.76" cy="203.2" r="67.28"/><path class="cls-6" d="M230.53,341.2c5.27,12.42,15.5,17.7,31.66,18.47"/><path class="cls-5" d="M169.86,274.46s3.38,13,10.45,52c7.25,40,33.2,49.69,33.2,49.69,23.9,14.14,48.18,17.28,66,9.24-4.28,5.16-14.86,11.68-23.44,14.29,0,0-25.81,10.5-69.18-9.46-40.18-18.48-56.9-47.49-56.9-47.49l22.43-41.89,16.49-28,1.89,3"/><rect class="cls-7" x="231.19" y="232.58" width="44.55" height="72.12" rx="22.28"/><rect x="251.38" y="262.91" width="19.12" height="31.86" rx="9.56"/><rect class="cls-8" x="227.65" y="228.18" width="51.45" height="80.92" rx="18.05"/><ellipse class="cls-2" cx="147.83" cy="275.78" rx="22.93" ry="25.63"/><rect x="75.51" y="634.31" width="305.42" height="104.89" rx="23.94"/><rect x="230.29" y="719.01" width="250.03" height="80.59" rx="29.1" transform="translate(1114.61 404) rotate(90)"/><circle class="cls-9" cx="137.61" cy="289.33" r="2.18"/><circle class="cls-9" cx="145.6" cy="294.25" r="3.51"/><path class="cls-1" d="M299.58,545.72l-16,30.57A18.26,18.26,0,0,1,260,584.53L119.18,522.7a18.25,18.25,0,0,1-8.83-25.2l25.93-49.45A18.27,18.27,0,0,1,162,441l131,80.71A18.26,18.26,0,0,1,299.58,545.72Z"/><circle class="cls-2" cx="399.4" cy="461.81" r="40.24"/><path class="cls-1" d="M375.28,463.06l14.43,22.13c4,6.15,2.05,14.7-4.48,19.56L280.56,582.69c-7.2,5.36-17.07,4.15-21.49-2.63l-23.33-35.8c-4.42-6.78-1.54-16.3,6.28-20.73l113.57-64.27C362.67,455.25,371.28,456.91,375.28,463.06Z"/><path class="cls-1" d="M230.72,639.91H99.83c-15.33,0-27.56-9.62-26.82-21.12L83.86,449c.69-10.74,12.49-19.19,26.83-19.19H219.86c14.34,0,26.14,8.45,26.83,19.19l10.85,169.79C258.28,630.29,246.05,639.91,230.72,639.91Z"/><path class="cls-1" d="M38.76,341.46l9.65-13.4a48.58,48.58,0,0,1,67.42-11.34L252.45,413c12.19,8.6,5.95,27.78-9,27.56L87.41,438.19C38.07,437.44,10,381.52,38.76,341.46Z"/><line class="cls-10" x1="281.01" y1="274.35" x2="294.87" y2="270.62"/></g><g id="Desk_Items" data-name="Desk Items"><g id="Lamp"><rect class="cls-11" x="791.7" y="365.04" width="8.45" height="140.22" rx="4.23" transform="translate(-63.19 144) rotate(-9.95)"/><rect class="cls-11" x="734.74" y="289.37" width="8.45" height="107.63" rx="4.23" transform="translate(110.49 861.7) rotate(-64.44)"/><rect class="cls-11" x="664.13" y="305.15" width="8.45" height="77.41" rx="4.23" transform="translate(912.49 1054.73) rotate(-136.18)"/><ellipse class="cls-12" cx="637.18" cy="419.77" rx="33.86" ry="47.94" transform="translate(119.59 980.4) rotate(-80.66)"/><path class="cls-3" d="M695.87,443.22,573.24,423.06c-6.35-1.05-8.61-12.36-4.09-20.5l14.4-25.93c9.5-17.1,38.59-23.89,47-22.52l33.2,5.46c8.36,1.38,33.74,17.12,37.27,36.37l5.34,29.18C708,434.27,702.22,444.27,695.87,443.22Z"/><circle class="cls-3" cx="690.92" cy="320.58" r="12.97"/><circle class="cls-13" cx="781.77" cy="363.84" r="8.18"/><circle class="cls-3" cx="781.77" cy="363.84" r="12.97"/><path class="cls-3" d="M841.83,526.73h-74a6.54,6.54,0,0,1-5.71-9.73l4.93-8.82a24.75,24.75,0,0,1,21.6-12.68H821a24.75,24.75,0,0,1,21.6,12.68l4.93,8.82A6.54,6.54,0,0,1,841.83,526.73Z"/></g><g id="Desk"><rect class="cls-14" x="243.85" y="731.67" width="360.11" height="75.64" rx="29.1" transform="translate(1193.39 345.58) rotate(90)"/><rect class="cls-14" x="615.9" y="732.19" width="360.11" height="74.6" rx="29.1" transform="translate(1565.44 -26.47) rotate(90)"/><path class="cls-15" d="M797.08,619.09V666a29.75,29.75,0,0,0,29.76,29.75h28.45A29.76,29.76,0,0,0,885.05,666l-.16-109.84a29.75,29.75,0,0,0-29.75-29.75H358.57a29.75,29.75,0,0,0-29.75,29.75l.2,65.34a29.76,29.76,0,0,0,29.76,29.76h28.45c16.44,0,29.76-14.36,29.76-30.8Z"/></g><g id="Keyboard"><rect class="cls-16" x="423.94" y="461.39" width="127.11" height="21.7" rx="8.08" transform="translate(-104.24 139.81) rotate(-14.76)"/><path class="cls-17" d="M556.51,524.8H421.94a10.22,10.22,0,0,1-10.23-10.22V500.36a10.24,10.24,0,0,1,7.62-9.89L553.9,455a10.22,10.22,0,0,1,12.83,9.88v49.73A10.21,10.21,0,0,1,556.51,524.8Z"/></g><g id="Mouse"><rect class="cls-18" x="494.14" y="482.61" width="16.6" height="6.82" rx="3.41"/><path class="cls-19" d="M525.35,526.3H456.84c-7.76,0-14.06-5.7-14.06-12.74h0c0-15,15.92-28,31.3-28h34c15.38,0,31.3,13,31.3,28h0C539.4,520.6,533.11,526.3,525.35,526.3Z"/><path class="cls-20" d="M526.4,503.65H502a4.39,4.39,0,0,1-4.22-4.54v-6.2a4.38,4.38,0,0,1,4.22-4.53h4c10.9-.25,22.85,5.61,22.85,12.54h0A2.64,2.64,0,0,1,526.4,503.65Z"/></g><g id="Chair"><rect class="cls-14" x="21.41" y="748.1" width="58.44" height="200.69" rx="19.36"/><rect class="cls-14" x="212.28" y="748.1" width="58.44" height="200.69" rx="19.36"/><path class="cls-15" d="M290.8,759.85a21,21,0,0,0-21-21H99.29a24.71,24.71,0,0,1-24.72-24.71V464.21A26.47,26.47,0,0,0,48.1,437.73H26.64A26.48,26.48,0,0,0,.16,464.21V775.38a29,29,0,0,0,29,29H262.7v8.94a14.14,14.14,0,0,0,14.14,14.13h0A14.13,14.13,0,0,0,291,813.33Z"/></g><g id="Monitor"><path class="cls-21" d="M682.6,447.84,385.24,566.36C336.73,592.09,306,603,275.79,576.56h0c-174.45-152.63-174.45-400.11,0-552.74h0C306-2.63,338.55-8.53,385.24,13.62L682.6,152.55C705.19,234.09,705.19,366.29,682.6,447.84Z"/><rect class="cls-22" x="699.21" y="188.66" width="43.14" height="225.89" rx="17.19"/><rect class="cls-23" x="683.82" y="310.49" width="17.59" height="209.15" rx="8.48"/><rect class="cls-24" x="679.14" y="474.12" width="23.88" height="80.62" rx="6.57" transform="translate(176.65 1205.51) rotate(-90)"/><rect class="cls-25" x="665.41" y="144.49" width="54.42" height="308.3" rx="17.19"/></g><rect class="cls-15" y="407.05" width="37.17" height="69.26" rx="14.51"/></g></g></g></g></svg>