<svg xmlns="http://www.w3.org/2000/svg" viewBox="0 0 885.05 949.54"><defs><style>.cls-1{fill:#ebe3e3;}.cls-2{fill:#4d2b12;}.cls-10,.cls-3,.cls-6{fill:none;stroke-miterlimit:10;}.cls-3{stroke:#fff;stroke-linecap:round;stroke-width:25px;}.cls-4,.cls-8{opacity:0.5;}.cls-5{fill:#fff;}.cls-6{stroke:#ffb800;stroke-width:15px;}.cls-7{fill:#ffb800;}.cls-9{fill:#082e15;}.cls-10{stroke:#ffce8e;stroke-width:5px;}.cls-11{fill:#e0d29d;}.cls-12{fill:#807b7b;}.cls-13{fill:#945700;}.cls-14{fill:#cd7900;}.cls-15{fill:#fff5d3;}.cls-16{fill:#1cb0f6;}.cls-17{fill:#920707;}.cls-18{fill:#ee5b5b;}.cls-19{fill:#f17a7a;}.cls-20{fill:#ffe279;opacity:0.25;}.cls-21{fill:#333;}.cls-22{fill:#9d9d9d;}.cls-23{fill:#777;}.cls-24{fill:#4b4b4b;}</style></defs><g id="Layer_2" data-name="Layer 2"><g id="Full_Scene" data-name="Full Scene"><g id="Full_Scene-2" data-name="Full Scene"><g id="Me"><path id="Shoes" class="cls-1" d="M348.11,864.49c-1.1,9.86-2.87,25.51-4.29,38a17.72,17.72,0,0,0,17.55,19.72l134.3.37a11.21,11.21,0,0,0,10.7-14.66L503,897.53a14.82,14.82,0,0,0-7.7-8.81l-85.58-41a16.84,16.84,0,0,0-10.18-1.41l-40.91,7A12.79,12.79,0,0,0,348.11,864.49Z"/><rect x="90.68" y="626.39" width="305.42" height="104.89" rx="23.94"/><rect x="245.46" y="711.1" width="250.03" height="80.59" rx="29.1" transform="translate(1121.87 380.92) rotate(90)"/><path id="Shoes-2" data-name="Shoes" class="cls-1" d="M319.75,872.41c-1.1,9.85-2.87,25.51-4.3,38A17.72,17.72,0,0,0,333,930.14l134.3.38A11.22,11.22,0,0,0,478,915.85l-3.37-10.41a14.81,14.81,0,0,0-7.69-8.8l-85.58-41a17,17,0,0,0-10.19-1.42l-40.9,7.05A12.78,12.78,0,0,0,319.75,872.41Z"/><circle cx="270.24" cy="193.28" r="38.28"/><path class="cls-2" d="M284.51,281.13v36.22c0,4.24,2.91,7.68,6.5,7.68h17.77c5,0,8.14-6.42,5.63-11.54l-17.77-36.22C293.3,270.48,284.51,273.27,284.51,281.13Z"/><path class="cls-2" d="M171.61,166.5h64A61.47,61.47,0,0,1,297.06,228V343.86a58.4,58.4,0,0,1-58.4,58.4H210.61a83.42,83.42,0,0,1-83.42-83.42V210.91a44.41,44.41,0,0,1,44.41-44.41Z"/><circle cx="262.32" cy="174.15" r="38.28"/><circle cx="204.2" cy="163.67" r="53.38"/><circle cx="128.39" cy="315.33" r="27.53"/><circle cx="107.75" cy="266.71" r="40.91"/><circle cx="140.76" cy="203.2" r="67.28"/><path class="cls-3" d="M230.53,341.2c5.27,12.42,15.5,17.7,31.66,18.47"/><path class="cls-4" d="M169.86,274.46s3.38,13,10.45,52c7.25,40,33.2,49.69,33.2,49.69,23.9,14.14,48.18,17.28,66,9.24-4.28,5.16-14.86,11.68-23.44,14.29,0,0-25.81,10.5-69.18-9.46-40.18-18.48-56.9-47.49-56.9-47.49l22.43-41.89,16.49-28,1.89,3"/><rect class="cls-5" x="231.19" y="232.58" width="44.55" height="72.12" rx="22.28"/><rect x="251.38" y="262.91" width="19.12" height="31.86" rx="9.56"/><rect class="cls-6" x="227.65" y="228.18" width="51.45" height="80.92" rx="18.05"/><ellipse class="cls-2" cx="147.83" cy="275.78" rx="22.93" ry="25.63"/><rect x="75.51" y="634.31" width="305.42" height="104.89" rx="23.94"/><rect x="230.29" y="719.01" width="250.03" height="80.59" rx="29.1" transform="translate(1114.61 404) rotate(90)"/><circle class="cls-7" cx="137.61" cy="289.33" r="2.18"/><circle class="cls-7" cx="145.6" cy="294.25" r="3.51"/><g class="cls-8"><path class="cls-9" d="M279.46,507.13l-16,30.57a18.26,18.26,0,0,1-23.52,8.24L99.06,484.11a18.25,18.25,0,0,1-8.83-25.2l25.93-49.45a18.27,18.27,0,0,1,25.76-7.07l131,80.71A18.26,18.26,0,0,1,279.46,507.13Z"/><circle class="cls-2" cx="383.52" cy="447.48" r="40.24"/><path class="cls-9" d="M362.7,446.41l10.39,24.29a14.22,14.22,0,0,1-7,18.15L256.71,544.53c-7.53,3.83-16.63.76-19.81-6.68l-16.81-39.28c-3.19-7.44.87-16.15,8.84-18.95l115.81-40.69A14.24,14.24,0,0,1,362.7,446.41Z"/></g><path class="cls-9" d="M299.58,545.72l-16,30.57A18.26,18.26,0,0,1,260,584.53L119.18,522.7a18.25,18.25,0,0,1-8.83-25.2l25.93-49.45A18.27,18.27,0,0,1,162,441l131,80.71A18.26,18.26,0,0,1,299.58,545.72Z"/><circle class="cls-2" cx="399.4" cy="461.81" r="40.24"/><path class="cls-9" d="M375.28,463.06l14.43,22.13c4,6.15,2.05,14.7-4.48,19.56L280.56,582.69c-7.2,5.36-17.07,4.15-21.49-2.63l-23.33-35.8c-4.42-6.78-1.54-16.3,6.28-20.73l113.57-64.27C362.67,455.25,371.28,456.91,375.28,463.06Z"/><path class="cls-9" d="M230.72,639.91H99.83c-15.33,0-27.56-9.62-26.82-21.12L83.86,449c.69-10.74,12.49-19.19,26.83-19.19H219.86c14.34,0,26.14,8.45,26.83,19.19l10.85,169.79C258.28,630.29,246.05,639.91,230.72,639.91Z"/><path class="cls-9" d="M38.76,341.46l9.65-13.4a48.58,48.58,0,0,1,67.42-11.34L252.45,413c12.19,8.6,5.95,27.78-9,27.56L87.41,438.19C38.07,437.44,10,381.52,38.76,341.46Z"/></g><g id="Desk_Items" data-name="Desk Items"><g id="Lamp"><rect class="cls-10" x="791.7" y="365.04" width="8.45" height="140.22" rx="4.23" transform="translate(-63.19 144) rotate(-9.95)"/><rect class="cls-10" x="734.74" y="289.37" width="8.45" height="107.63" rx="4.23" transform="translate(110.49 861.7) rotate(-64.44)"/><rect class="cls-10" x="664.13" y="305.15" width="8.45" height="77.41" rx="4.23" transform="translate(912.49 1054.73) rotate(-136.18)"/><ellipse class="cls-11" cx="637.18" cy="419.77" rx="33.86" ry="47.94" transform="translate(119.59 980.4) rotate(-80.66)"/><path class="cls-1" d="M695.87,443.22,573.24,423.06c-6.35-1.05-8.61-12.36-4.09-20.5l14.4-25.93c9.5-17.1,38.59-23.89,47-22.52l33.2,5.46c8.36,1.38,33.74,17.12,37.27,36.37l5.34,29.18C708,434.27,702.22,444.27,695.87,443.22Z"/><circle class="cls-1" cx="690.92" cy="320.58" r="12.97"/><circle class="cls-12" cx="781.77" cy="363.84" r="8.18"/><circle class="cls-1" cx="781.77" cy="363.84" r="12.97"/><path class="cls-1" d="M841.83,526.73h-74a6.54,6.54,0,0,1-5.71-9.73l4.93-8.82a24.75,24.75,0,0,1,21.6-12.68H821a24.75,24.75,0,0,1,21.6,12.68l4.93,8.82A6.54,6.54,0,0,1,841.83,526.73Z"/></g><g id="Desk"><rect class="cls-13" x="243.85" y="731.67" width="360.11" height="75.64" rx="29.1" transform="translate(1193.39 345.58) rotate(90)"/><rect class="cls-13" x="615.9" y="732.19" width="360.11" height="74.6" rx="29.1" transform="translate(1565.44 -26.47) rotate(90)"/><path class="cls-14" d="M797.08,619.09V666a29.75,29.75,0,0,0,29.76,29.75h28.45A29.76,29.76,0,0,0,885.05,666l-.16-109.84a29.75,29.75,0,0,0-29.75-29.75H358.57a29.75,29.75,0,0,0-29.75,29.75l.2,65.34a29.76,29.76,0,0,0,29.76,29.76h28.45c16.44,0,29.76-14.36,29.76-30.8Z"/></g><g id="Keyboard"><rect class="cls-15" x="423.94" y="463.07" width="127.11" height="21.7" rx="8.08" transform="translate(-104.67 139.87) rotate(-14.76)"/><path class="cls-16" d="M556.51,526.49H421.94a10.23,10.23,0,0,1-10.23-10.22V502a10.22,10.22,0,0,1,7.62-9.88L553.9,456.65a10.23,10.23,0,0,1,12.83,9.89v49.73A10.22,10.22,0,0,1,556.51,526.49Z"/></g><g id="Mouse"><rect class="cls-17" x="494.14" y="482.61" width="16.6" height="6.82" rx="3.41"/><path class="cls-18" d="M525.35,526.3H456.84c-7.76,0-14.06-5.7-14.06-12.74h0c0-15,15.92-28,31.3-28h34c15.38,0,31.3,13,31.3,28h0C539.4,520.6,533.11,526.3,525.35,526.3Z"/><path class="cls-19" d="M526.4,503.65H502a4.39,4.39,0,0,1-4.22-4.54v-6.2a4.38,4.38,0,0,1,4.22-4.53h4c10.9-.25,22.85,5.61,22.85,12.54h0A2.64,2.64,0,0,1,526.4,503.65Z"/></g><g id="Chair"><rect class="cls-13" x="21.41" y="748.1" width="58.44" height="200.69" rx="19.36"/><rect class="cls-13" x="212.28" y="748.1" width="58.44" height="200.69" rx="19.36"/><path class="cls-14" d="M290.8,759.85a21,21,0,0,0-21-21H99.29a24.71,24.71,0,0,1-24.72-24.71V464.21A26.47,26.47,0,0,0,48.1,437.73H26.64A26.48,26.48,0,0,0,.16,464.21V775.38a29,29,0,0,0,29,29H262.7v8.94a14.14,14.14,0,0,0,14.14,14.13h0A14.13,14.13,0,0,0,291,813.33Z"/></g><g id="Monitor"><path class="cls-20" d="M682.6,447.84,385.24,566.36C336.73,592.09,306,603,275.79,576.56h0c-174.45-152.63-174.45-400.11,0-552.74h0C306-2.63,338.55-8.53,385.24,13.62L682.6,152.55C705.19,234.09,705.19,366.29,682.6,447.84Z"/><rect class="cls-21" x="699.21" y="188.66" width="43.14" height="225.89" rx="17.19"/><rect class="cls-22" x="683.82" y="310.49" width="17.59" height="209.15" rx="8.48"/><rect class="cls-23" x="679.14" y="474.12" width="23.88" height="80.62" rx="6.57" transform="translate(176.65 1205.51) rotate(-90)"/><rect class="cls-24" x="665.41" y="144.49" width="54.42" height="308.3" rx="17.19"/></g><rect class="cls-14" y="407.05" width="37.17" height="69.26" rx="14.51"/></g></g></g></g></svg>