<svg xmlns="http://www.w3.org/2000/svg" xmlns:xlink="http://www.w3.org/1999/xlink" viewBox="0 0 259.19 315.55"><defs><style>.cls-1,.cls-10,.cls-7,.cls-8{fill:none;}.cls-2{fill:#4d2b12;}.cls-3{clip-path:url(#clip-path);}.cls-4{opacity:0.5;}.cls-5{fill:#ffb800;}.cls-6{fill:#fff;}.cls-7,.cls-8{stroke:#ffb800;stroke-width:15px;}.cls-10,.cls-7,.cls-8{stroke-miterlimit:10;}.cls-10,.cls-8{stroke-linecap:round;}.cls-9{fill:#693814;}.cls-10{stroke:#fff;stroke-width:25px;}</style><clipPath id="clip-path"><path class="cls-1" d="M108.67,65.9h51.54a58.4,58.4,0,0,1,58.4,58.4v119a61.47,61.47,0,0,1-61.47,61.47H90.9a44.41,44.41,0,0,1-44.41-44.41V128.08A62.18,62.18,0,0,1,108.67,65.9Z" transform="translate(271.48 365.93) rotate(178)"/></clipPath></defs><g id="Layer_2" data-name="Layer 2"><g id="Layer_1-2" data-name="Layer 1"><circle cx="185.36" cy="60.78" r="49.28"/><path class="cls-2" d="M108.92,65.06h51.54a58.4,58.4,0,0,1,58.4,58.4v119a61.47,61.47,0,0,1-61.47,61.47H91.15a44.41,44.41,0,0,1-44.41-44.41V127.25a62.18,62.18,0,0,1,62.18-62.18Z" transform="translate(271.95 364.26) rotate(178)"/><g class="cls-3"><path class="cls-4" d="M57.93,238.58c.13.79.28,1.58.43,2.35,6.9,34.88,37.31,60.3,72.84,61.82,21.78.94,46-1,49.7-.41-3.82,5.64-29.05,8.84-37.44,12.31,0,0-22.57,5.46-68.26-10.43-42.33-14.72-62-42.34-62-42.34L31.7,217.44l20.67-33.16Z"/></g><circle cx="228.99" cy="140.35" r="22.69"/><circle cx="220.39" cy="91.71" r="38.79"/><circle cx="29.63" cy="119.01" r="29.63"/><circle cx="46.52" cy="71.85" r="41.32"/><circle cx="94.27" cy="55.56" r="47.76"/><circle cx="153.52" cy="54.1" r="54.09"/><ellipse class="cls-2" cx="227.58" cy="173.3" rx="23.23" ry="25.97" transform="matrix(1, -0.03, 0.03, 1, -5.91, 8.05)"/><circle class="cls-5" cx="237.55" cy="185.52" r="2.21"/><circle class="cls-5" cx="229.63" cy="190.79" r="3.56"/><rect class="cls-6" x="153.34" y="130.65" width="45.14" height="73.08" rx="17.08" transform="translate(357.56 328.13) rotate(178)"/><rect x="167.78" y="154.99" width="19.38" height="34.79" rx="7.33" transform="translate(360.85 338.47) rotate(178)"/><rect class="cls-7" x="149.94" y="126.19" width="52.14" height="81.99" rx="18.05" transform="translate(357.74 328.12) rotate(178)"/><circle class="cls-6" cx="173.61" cy="161.37" r="9.33"/><circle cx="33.77" cy="155.03" r="18.24"/><ellipse class="cls-2" cx="40.69" cy="178.06" rx="25.97" ry="23.23" transform="matrix(0, -1, 1, 0, -137.55, 217.97)"/><circle class="cls-5" cx="31.1" cy="190.58" r="2.21"/><circle class="cls-5" cx="39.17" cy="195.6" r="3.56"/><rect class="cls-6" x="77.62" y="138.44" width="45.14" height="73.08" rx="17.08" transform="translate(206.43 346.36) rotate(178)"/><rect x="93.61" y="159.1" width="19.38" height="36.49" rx="7.33" transform="translate(212.72 350.98) rotate(178)"/><rect class="cls-7" x="74.21" y="133.99" width="52.14" height="81.99" rx="18.05" transform="translate(206.61 346.35) rotate(178)"/><circle class="cls-6" cx="99.32" cy="166.29" r="9.33"/><path class="cls-8" d="M128.12,194.08c-.72-6.33,21.89-8.87,22.61-2.54"/><rect class="cls-9" x="129.51" y="194.39" width="22.39" height="25.46" rx="8.24" transform="translate(284.56 412.06) rotate(179.12)"/><path class="cls-10" d="M192.05,246.5c-5.35,12.59-15.71,17.94-32.09,18.72"/></g></g></svg>