<svg xmlns="http://www.w3.org/2000/svg" xmlns:xlink="http://www.w3.org/1999/xlink" viewBox="0 0 392.61 1036.73"><defs><style>.cls-1,.cls-10,.cls-12,.cls-9{fill:none;}.cls-2{fill:#ebe3e3;}.cls-3{fill:#082e15;}.cls-4{fill:#4d2b12;}.cls-5{clip-path:url(#clip-path);}.cls-6{opacity:0.5;}.cls-7{fill:#ffb800;}.cls-8{fill:#fff;}.cls-10,.cls-9{stroke:#ffb800;stroke-width:15px;}.cls-10,.cls-12,.cls-9{stroke-miterlimit:10;}.cls-10,.cls-12{stroke-linecap:round;}.cls-11{fill:#693814;}.cls-12{stroke:#fff;stroke-width:25px;}</style><clipPath id="clip-path"><path class="cls-1" d="M187.69,127.84H208.6a58.4,58.4,0,0,1,58.4,58.4v76.5a61.47,61.47,0,0,1-61.47,61.47H169.92a44.41,44.41,0,0,1-44.41-44.41V190A62.18,62.18,0,0,1,187.69,127.84Z" transform="translate(400.28 445.07) rotate(178)"/></clipPath></defs><g id="Layer_2" data-name="Layer 2"><g id="Layer_1-2" data-name="Layer 1"><path id="Shoes" class="cls-2" d="M164.8,959.68c2.44,9.42,6.33,24.38,9.45,36.34a17.38,17.38,0,0,1-14.31,21.58l-130.41,19a11,11,0,0,1-12.43-12.76l1.83-10.58a14.5,14.5,0,0,1,6.25-9.62l77.43-51.74a16.57,16.57,0,0,1,9.7-2.79L153,950.29A12.52,12.52,0,0,1,164.8,959.68Z"/><rect x="-10.37" y="787.05" width="284.06" height="79.08" rx="29.1" transform="translate(958.25 694.93) rotate(90)"/><path d="M68.55,579H196.17a70.1,70.1,0,0,1,70.1,70.1v8.21A24.62,24.62,0,0,1,241.65,682H68.55a24.62,24.62,0,0,1-24.62-24.62V603.66A24.62,24.62,0,0,1,68.55,579Z" transform="translate(801.2 566.14) rotate(98.13)"/><path id="Shoes-2" data-name="Shoes" class="cls-2" d="M237.32,951c-2.43,9.42-6.32,24.38-9.44,36.34a17.38,17.38,0,0,0,14.31,21.58l130.41,19A11,11,0,0,0,385,1015.13l-1.83-10.58a14.48,14.48,0,0,0-6.25-9.62l-77.43-51.75a16.65,16.65,0,0,0-9.7-2.79l-40.72,1.17A12.54,12.54,0,0,0,237.32,951Z"/><rect x="128.44" y="778.33" width="284.06" height="79.08" rx="29.1" transform="translate(1088.33 547.4) rotate(90)"/><path d="M160.48,570.32h173.1a24.62,24.62,0,0,1,24.62,24.62v8.21a70.1,70.1,0,0,1-70.1,70.1H160.48a24.62,24.62,0,0,1-24.62-24.62V594.93A24.62,24.62,0,0,1,160.48,570.32Z" transform="translate(827.61 289.28) rotate(81.87)"/><path class="cls-3" d="M275.36,557.5l-158.51-.69c-18.57-.08-33.32-11.49-32.38-25l14-200.08c.89-12.66,15.23-22.55,32.59-22.48l132.22.58c17.35.08,31.61,10.09,32.38,22.76L308,532.74C308.79,546.3,293.94,557.58,275.36,557.5Z"/><path class="cls-3" d="M78.17,174,45.86,188.15a16.39,16.39,0,0,0-8.53,21.41l60.3,142.35a16.39,16.39,0,0,0,21.65,8.63L154.94,345a16.39,16.39,0,0,0,8.39-21.77L99.68,182.28A16.4,16.4,0,0,0,78.17,174Z"/><circle class="cls-4" cx="39.69" cy="39.69" r="39.69"/><path class="cls-3" d="M55.4,57.59l-25.56,5C22.74,64,18.05,71.3,19.1,79.26l17,127.59c1.17,8.78,8.82,14.93,16.66,13.38l41.34-8.16c7.84-1.54,12.58-10.13,10.33-18.7L71.65,68.89C69.6,61.13,62.51,56.19,55.4,57.59Z"/><path class="cls-3" d="M314.44,506.3l32.32-14.14a16.39,16.39,0,0,0,8.52-21.41L295,328.4a16.39,16.39,0,0,0-21.65-8.63l-35.66,15.56a16.39,16.39,0,0,0-8.39,21.77L292.94,498A16.38,16.38,0,0,0,314.44,506.3Z"/><circle class="cls-4" cx="352.92" cy="640.62" r="39.69"/><path class="cls-3" d="M337.21,622.72l25.56-5c7.11-1.41,11.8-8.67,10.74-16.63l-17-127.59c-1.17-8.78-8.82-14.92-16.65-13.38l-41.35,8.16c-7.83,1.55-12.58,10.14-10.32,18.7L321,611.42C323,619.19,330.11,624.12,337.21,622.72Z"/><rect class="cls-4" x="180.15" y="309.16" width="42.85" height="31.81" rx="9.73" transform="matrix(1, -0.02, 0.02, 1, -6.9, 4.38)"/><path class="cls-3" d="M117.1,280.56l2.49-8.71c4-14.06,15.42-18.11,25.56-9.09L193.21,332c5.68,5,5.11,17.3-.82,17.59l-62,3C110.78,353.56,109.67,306.59,117.1,280.56Z"/><path class="cls-3" d="M276.56,280.56l-2.49-8.71c-4-14.06-15.42-18.11-25.56-9.09l-48,69.22c-5.68,5-5.11,17.3.81,17.59l62,3C282.88,353.56,284,306.59,276.56,280.56Z"/><circle cx="239.67" cy="123.64" r="40.51"/><path class="cls-4" d="M187.9,127.16h20.91a58.4,58.4,0,0,1,58.4,58.4v76.5a61.47,61.47,0,0,1-61.47,61.47H170.13a44.41,44.41,0,0,1-44.41-44.41V189.34a62.18,62.18,0,0,1,62.18-62.18Z" transform="translate(400.67 443.69) rotate(178)"/><g class="cls-5"><path class="cls-6" d="M134.91,269.8c.12.65.23,1.29.36,1.93,5.67,28.68,30.67,49.57,59.88,50.82,17.9.77,37.82-.79,40.85-.33-3.14,4.62-23.88,7.26-30.78,10.11,0,0-18.55,4.49-56.11-8.57-34.8-12.1-51-34.81-51-34.81l15.23-36.53,17-27.26Z"/></g><circle cx="275.54" cy="189.05" r="18.65"/><circle cx="268.46" cy="149.06" r="31.89"/><circle cx="111.66" cy="171.51" r="24.35"/><circle cx="125.54" cy="132.74" r="33.97"/><circle cx="164.79" cy="119.35" r="39.26"/><circle cx="213.49" cy="118.15" r="44.46"/><ellipse class="cls-4" cx="274.38" cy="216.14" rx="19.1" ry="21.34" transform="translate(-7.38 9.71) rotate(-2)"/><circle class="cls-7" cx="282.57" cy="226.18" r="1.82"/><circle class="cls-7" cx="276.06" cy="230.51" r="2.93"/><rect class="cls-8" x="213.35" y="181.08" width="37.11" height="60.07" rx="17.08" transform="translate(471.04 414) rotate(178)"/><rect x="225.22" y="201.08" width="15.93" height="28.6" rx="7.33" transform="translate(473.75 422.49) rotate(178)"/><rect class="cls-9" x="210.55" y="177.41" width="42.86" height="67.4" rx="18.05" transform="translate(471.19 413.99) rotate(178)"/><circle class="cls-8" cx="230.01" cy="206.33" r="7.67"/><circle cx="115.05" cy="201.12" r="15"/><ellipse class="cls-4" cx="120.74" cy="220.05" rx="21.34" ry="19.1" transform="translate(-99.83 339.83) rotate(-89.75)"/><circle class="cls-7" cx="112.86" cy="230.34" r="1.82"/><circle class="cls-7" cx="119.5" cy="234.47" r="2.93"/><rect class="cls-8" x="151.1" y="187.48" width="37.11" height="60.07" rx="17.08" transform="translate(346.8 428.98) rotate(178)"/><rect x="164.25" y="204.46" width="15.93" height="30" rx="7.33" transform="translate(351.98 432.78) rotate(178)"/><rect class="cls-9" x="148.3" y="183.82" width="42.86" height="67.4" rx="18.05" transform="translate(346.95 428.98) rotate(178)"/><circle class="cls-8" cx="168.94" cy="210.38" r="7.67"/><path class="cls-10" d="M192.62,233.22c-.59-5.21,18-7.3,18.58-2.09"/><rect class="cls-11" x="193.76" y="233.47" width="18.41" height="20.93" rx="8.24" transform="translate(409.63 484.74) rotate(179.12)"/><path class="cls-12" d="M245.17,276.31c-4.4,10.35-12.91,14.74-26.38,15.38"/></g></g></svg>