<svg xmlns="http://www.w3.org/2000/svg" viewBox="0 0 286.37 560.65"><defs><style>.cls-1{fill:#4d2b12;}.cls-2{fill:#7b461e;}</style></defs><g id="Layer_2" data-name="Layer 2"><g id="Layer_1-2" data-name="Layer 1"><path class="cls-1" d="M166,116.85h0a84.92,84.92,0,0,1,84.93,84.92v221A84.93,84.93,0,0,1,166,507.69h0a84.93,84.93,0,0,1-84.92-84.93v-221A84.92,84.92,0,0,1,166,116.85Z"/><path class="cls-2" d="M166,116.85h0a84.92,84.92,0,0,1,84.93,84.92v221A84.93,84.93,0,0,1,166,507.69h0a84.93,84.93,0,0,1-84.92-84.93v-221A84.92,84.92,0,0,1,166,116.85Z"/><ellipse class="cls-2" cx="131.93" cy="136.02" rx="131.93" ry="136.02"/><ellipse class="cls-1" cx="154.43" cy="136.02" rx="131.93" ry="136.02"/><path class="cls-1" d="M176.06,116.85h0a84,84,0,0,1,84,84V476.64a84,84,0,0,1-84,84h0a84,84,0,0,1-84-84V200.86A84,84,0,0,1,176.06,116.85Z"/></g></g></svg>