<svg xmlns="http://www.w3.org/2000/svg" xmlns:xlink="http://www.w3.org/1999/xlink" viewBox="0 0 427.03 973.94"><defs><style>.cls-1,.cls-12,.cls-13,.cls-15,.cls-8{fill:none;}.cls-2{fill:#bfb9b9;}.cls-3{fill:#ffb800;}.cls-4{fill:#082e15;}.cls-5{opacity:0.5;}.cls-6{fill:#4d2b12;}.cls-7{fill:#ebe3e3;}.cls-8{stroke:#2d6901;stroke-width:35px;}.cls-13,.cls-15,.cls-8{stroke-linecap:round;}.cls-12,.cls-13,.cls-15,.cls-8{stroke-miterlimit:10;}.cls-9{fill:#051c0d;}.cls-10{clip-path:url(#clip-path);}.cls-11{fill:#fff;}.cls-12,.cls-13{stroke:#ffb800;stroke-width:15px;}.cls-14{fill:#693814;}.cls-15{stroke:#0d0601;stroke-width:10px;}</style><clipPath id="clip-path"><path class="cls-1" d="M147.15,62.27h49.29a58.4,58.4,0,0,1,58.4,58.4V236.55A61.47,61.47,0,0,1,193.36,298h-64A44.41,44.41,0,0,1,85,253.61V124.45a62.18,62.18,0,0,1,62.18-62.18Z" transform="translate(308.2 385.55) rotate(-170.63)"/></clipPath></defs><g id="Layer_2" data-name="Layer 2"><g id="Starting_No_Phone_" data-name="Starting (No Phone)"><path id="Shoes" class="cls-2" d="M180.2,880.63c-1.27,9.83-3.32,25.45-5,37.94a17.71,17.71,0,0,0,17.19,20l134.28,2.77a11.22,11.22,0,0,0,11-14.47l-3.18-10.47a14.82,14.82,0,0,0-7.54-8.94l-84.84-42.56a16.94,16.94,0,0,0-10.15-1.6l-41,6.32A12.79,12.79,0,0,0,180.2,880.63Z"/><rect x="106.91" y="707.62" width="293.66" height="80.59" rx="29.1" transform="translate(1039.36 666.92) rotate(102.85)"/><circle class="cls-3" cx="166.58" cy="241.38" r="2.18"/><path class="cls-4" d="M227.82,478.34,195.6,490.73a18.26,18.26,0,0,1-23.11-9.32L107.44,342a18.27,18.27,0,0,1,10-24.77l52.11-20.05a18.27,18.27,0,0,1,24,11.68l45.16,147.05A18.28,18.28,0,0,1,227.82,478.34Z"/><path class="cls-5" d="M227.82,478.34,195.6,490.73a18.26,18.26,0,0,1-23.11-9.32L107.44,342a18.27,18.27,0,0,1,10-24.77l52.11-20.05a18.27,18.27,0,0,1,24,11.68l45.16,147.05A18.28,18.28,0,0,1,227.82,478.34Z"/><circle class="cls-6" cx="337.7" cy="549.27" r="40.24"/><circle class="cls-5" cx="337.7" cy="549.27" r="40.24"/><path class="cls-4" d="M326.78,527.73l-14.39,22.16c-4,6.16-12.6,7.83-19.69,3.83L179,489.64c-7.82-4.41-10.72-13.93-6.31-20.72L196,433.09c4.41-6.8,14.29-8,21.5-2.67l104.79,77.77C328.81,513,330.78,521.58,326.78,527.73Z"/><path class="cls-5" d="M326.78,527.73l-14.39,22.16c-4,6.16-12.6,7.83-19.69,3.83L179,489.64c-7.82-4.41-10.72-13.93-6.31-20.72L196,433.09c4.41-6.8,14.29-8,21.5-2.67l104.79,77.77C328.81,513,330.78,521.58,326.78,527.73Z"/><circle class="cls-3" cx="174.57" cy="246.3" r="3.51"/><path d="M86,502.27H313.38A34.59,34.59,0,0,1,348,536.86v70.29a0,0,0,0,1,0,0H86a34.59,34.59,0,0,1-34.59-34.59v-35.7A34.59,34.59,0,0,1,86,502.27Z" transform="translate(508.77 52.68) rotate(51.42)"/><path id="Shoes-2" data-name="Shoes" class="cls-7" d="M232.2,885.44c-1.12,9.85-2.92,25.5-4.36,38a17.7,17.7,0,0,0,17.51,19.74l134.3.63a11.21,11.21,0,0,0,10.73-14.64L387,918.77a14.85,14.85,0,0,0-7.67-8.82l-85.51-41.2a16.93,16.93,0,0,0-10.18-1.44l-40.92,7A12.76,12.76,0,0,0,232.2,885.44Z"/><rect x="93.62" y="706.32" width="289.49" height="80.59" rx="29.1" transform="translate(905.95 336.02) rotate(76.11)"/><rect x="53.92" y="505.91" width="226.58" height="104.89" rx="23.94" transform="translate(443.79 45.3) rotate(45)"/><line class="cls-8" x1="85.36" y1="956.44" x2="409.53" y2="956.44"/><path class="cls-9" d="M26.05,237.48l7.28-10.12C45.07,211,70.25,204,89.76,211.57l86.4,64.92c10.93,4.24,6.93,17.8-5.74,19.47L37.86,313.43C-4,319,4.3,267.7,26.05,237.48Z"/><path class="cls-4" d="M218.34,496.19,77.25,513.83c-16.53,2.07-31-6.38-31.69-18.54L35,315.68c-.67-11.37,10.95-21.82,26.4-23.75l117.7-14.71c15.45-1.94,29.28,5.33,31.43,16.52l34,176.68C246.79,482.38,234.88,494.13,218.34,496.19Z"/><path class="cls-4" d="M105.19,533.8l-34.53.13A18.27,18.27,0,0,1,52.38,517L41.14,363.59A18.27,18.27,0,0,1,59.29,344l55.84-.21a18.27,18.27,0,0,1,18.29,19.46L123.34,516.73A18.27,18.27,0,0,1,105.19,533.8Z"/><circle class="cls-6" cx="125.18" cy="674.11" r="40.24"/><path class="cls-4" d="M132.41,651.08l-25.77,5.8c-7.16,1.61-14.49-3.2-16.77-11L53.32,520.59c-2.52-8.62,2.06-17.45,10-19.23L105,492c7.9-1.78,15.82,4.24,17.24,13.11l20.64,128.85C144.13,642,139.57,649.46,132.41,651.08Z"/><rect class="cls-6" x="106.59" y="274.7" width="51.45" height="31.07" rx="9.73" transform="translate(53.21 -18.77) rotate(10.15)"/><circle cx="245.24" cy="69.91" r="48.64"/><path class="cls-6" d="M147.55,61.51h49.29a58.4,58.4,0,0,1,58.4,58.4V235.79a61.47,61.47,0,0,1-61.47,61.47h-64a44.41,44.41,0,0,1-44.41-44.41V123.69a62.18,62.18,0,0,1,62.18-62.18Z" transform="translate(309.12 384.11) rotate(-170.63)"/><g class="cls-10"><path class="cls-5" d="M87.34,217.13c0,.8,0,1.59,0,2.37-.11,35.09,24.37,65.6,58.44,74,20.9,5.14,44.71,8,48.17,9.27-4.79,4.71-29.82,2.9-38.62,4.62,0,0-22.89.89-64-23.37-38.09-22.48-51.77-53-51.77-53l26.57-39.39,26.46-28.06Z"/></g><circle cx="271.97" cy="155.39" r="22.39"/><circle cx="273.11" cy="106.65" r="38.28"/><circle cx="83.24" cy="95.94" r="29.24"/><circle cx="108.75" cy="53.6" r="40.78"/><circle cx="158.12" cy="47.14" r="47.13"/><circle cx="215.73" cy="57.25" r="53.38"/><ellipse class="cls-6" cx="264.2" cy="187" rx="25.63" ry="22.93" transform="translate(36.67 417.21) rotate(-80.63)"/><circle class="cls-3" cx="271.46" cy="200.76" r="2.18"/><circle class="cls-3" cx="262.78" cy="204.31" r="3.51"/><rect class="cls-11" x="193.12" y="134.97" width="44.55" height="72.12" rx="22.28" transform="translate(400.06 374.85) rotate(-170.63)"/><path d="M220.24,173.12h0a9.56,9.56,0,0,1,9.56,9.56v11.48a0,0,0,0,1,0,0H210.68a0,0,0,0,1,0,0V182.68A9.56,9.56,0,0,1,220.24,173.12Z" transform="translate(407.64 400.7) rotate(-170.63)"/><rect class="cls-12" x="189.76" y="130.58" width="51.45" height="80.92" rx="18.05" transform="matrix(-0.99, -0.16, 0.16, -0.99, 400.24, 374.89)"/><circle cx="80.23" cy="131.6" r="18"/><ellipse class="cls-6" cx="82.44" cy="155.23" rx="25.63" ry="22.93" transform="translate(-86.21 204.7) rotate(-78.38)"/><circle class="cls-3" cx="70.73" cy="165.47" r="2.18"/><circle class="cls-3" cx="77.56" cy="171.9" r="3.51"/><rect class="cls-11" x="118.33" y="127.77" width="44.55" height="72.12" rx="22.28" transform="translate(252.66 348.37) rotate(-170.63)"/><path d="M145.81,163.32h0a9.56,9.56,0,0,1,9.56,9.56v12.35a0,0,0,0,1,0,0H136.24a0,0,0,0,1,0,0V172.88A9.56,9.56,0,0,1,145.81,163.32Z" transform="translate(261.28 369.97) rotate(-170.63)"/><rect class="cls-12" x="114.97" y="123.39" width="51.45" height="80.92" rx="18.05" transform="translate(252.84 348.42) rotate(-170.63)"/><path class="cls-13" d="M163.92,187.75c.54-6.27,22.91-4.33,22.37,1.94"/><rect class="cls-14" x="167.43" y="194.75" width="22.1" height="25.13" rx="8.24" transform="translate(316.21 443.68) rotate(-169.5)"/><line class="cls-15" x1="118.34" y1="237.56" x2="148.42" y2="241.57"/><path class="cls-4" d="M12.65,248.47l5.6-10.4a34.23,34.23,0,0,1,46.52-14l75.69,73.41c9.37,5.06,6.69,19.29-3.85,20.43l-110.26,12C-8.51,333.68-4.07,279.56,12.65,248.47Z"/></g></g></svg>